%TF.GenerationSoftware,KiCad,Pcbnew,(5.1.9)-1*%
%TF.CreationDate,2022-04-21T22:08:42+02:00*%
%TF.ProjectId,Sensors,53656e73-6f72-4732-9e6b-696361645f70,Rev.01*%
%TF.SameCoordinates,Original*%
%TF.FileFunction,Legend,Top*%
%TF.FilePolarity,Positive*%
%FSLAX46Y46*%
G04 Gerber Fmt 4.6, Leading zero omitted, Abs format (unit mm)*
G04 Created by KiCad (PCBNEW (5.1.9)-1) date 2022-04-21 22:08:42*
%MOMM*%
%LPD*%
G01*
G04 APERTURE LIST*
%ADD10C,0.100000*%
%ADD11C,0.120000*%
%ADD12C,0.150000*%
G04 APERTURE END LIST*
D10*
G36*
X84000000Y-60000000D02*
G01*
X76000000Y-60000000D01*
X76000000Y-52000000D01*
X84000000Y-52000000D01*
X84000000Y-60000000D01*
G37*
X84000000Y-60000000D02*
X76000000Y-60000000D01*
X76000000Y-52000000D01*
X84000000Y-52000000D01*
X84000000Y-60000000D01*
D11*
%TO.C,D1*%
X71562500Y-49460000D02*
X74247500Y-49460000D01*
X74247500Y-49460000D02*
X74247500Y-47540000D01*
X74247500Y-47540000D02*
X71562500Y-47540000D01*
%TO.C,J1*%
X82640000Y-42590000D02*
X82640000Y-40390000D01*
X82640000Y-40390000D02*
X83860000Y-40390000D01*
X83860000Y-40390000D02*
X83860000Y-48810000D01*
X83860000Y-48810000D02*
X76140000Y-48810000D01*
X76140000Y-48810000D02*
X76140000Y-40390000D01*
X76140000Y-40390000D02*
X77360000Y-40390000D01*
X77360000Y-40390000D02*
X77360000Y-42590000D01*
X83860000Y-47590000D02*
X82640000Y-47590000D01*
X82640000Y-47590000D02*
X82640000Y-42590000D01*
X82640000Y-42590000D02*
X83860000Y-42590000D01*
X76140000Y-47590000D02*
X77360000Y-47590000D01*
X77360000Y-47590000D02*
X77360000Y-42590000D01*
X77360000Y-42590000D02*
X76140000Y-42590000D01*
X82640000Y-43590000D02*
X77360000Y-43590000D01*
X81250000Y-43590000D02*
X81570000Y-43590000D01*
X81570000Y-43590000D02*
X81570000Y-47010000D01*
X81570000Y-47010000D02*
X81250000Y-47090000D01*
X81250000Y-47090000D02*
X80930000Y-47010000D01*
X80930000Y-47010000D02*
X80930000Y-43590000D01*
X80930000Y-43590000D02*
X81250000Y-43590000D01*
X80080000Y-42590000D02*
X79920000Y-42590000D01*
X78750000Y-43590000D02*
X79070000Y-43590000D01*
X79070000Y-43590000D02*
X79070000Y-47010000D01*
X79070000Y-47010000D02*
X78750000Y-47090000D01*
X78750000Y-47090000D02*
X78430000Y-47010000D01*
X78430000Y-47010000D02*
X78430000Y-43590000D01*
X78430000Y-43590000D02*
X78750000Y-43590000D01*
X81250000Y-40500000D02*
X81550000Y-39900000D01*
X81550000Y-39900000D02*
X80950000Y-39900000D01*
X80950000Y-39900000D02*
X81250000Y-40500000D01*
%TO.C,R1*%
X72814564Y-52235000D02*
X72360436Y-52235000D01*
X72814564Y-50765000D02*
X72360436Y-50765000D01*
%TO.C,D1*%
D12*
X69011904Y-48952380D02*
X69011904Y-47952380D01*
X69250000Y-47952380D01*
X69392857Y-48000000D01*
X69488095Y-48095238D01*
X69535714Y-48190476D01*
X69583333Y-48380952D01*
X69583333Y-48523809D01*
X69535714Y-48714285D01*
X69488095Y-48809523D01*
X69392857Y-48904761D01*
X69250000Y-48952380D01*
X69011904Y-48952380D01*
X70535714Y-48952380D02*
X69964285Y-48952380D01*
X70250000Y-48952380D02*
X70250000Y-47952380D01*
X70154761Y-48095238D01*
X70059523Y-48190476D01*
X69964285Y-48238095D01*
%TO.C,J1*%
X79666666Y-49352380D02*
X79666666Y-50066666D01*
X79619047Y-50209523D01*
X79523809Y-50304761D01*
X79380952Y-50352380D01*
X79285714Y-50352380D01*
X80666666Y-50352380D02*
X80095238Y-50352380D01*
X80380952Y-50352380D02*
X80380952Y-49352380D01*
X80285714Y-49495238D01*
X80190476Y-49590476D01*
X80095238Y-49638095D01*
%TO.C,R1*%
X69583333Y-51952380D02*
X69250000Y-51476190D01*
X69011904Y-51952380D02*
X69011904Y-50952380D01*
X69392857Y-50952380D01*
X69488095Y-51000000D01*
X69535714Y-51047619D01*
X69583333Y-51142857D01*
X69583333Y-51285714D01*
X69535714Y-51380952D01*
X69488095Y-51428571D01*
X69392857Y-51476190D01*
X69011904Y-51476190D01*
X70535714Y-51952380D02*
X69964285Y-51952380D01*
X70250000Y-51952380D02*
X70250000Y-50952380D01*
X70154761Y-51095238D01*
X70059523Y-51190476D01*
X69964285Y-51238095D01*
%TD*%
M02*
