%TF.GenerationSoftware,KiCad,Pcbnew,(5.1.9)-1*%
%TF.CreationDate,2022-04-21T22:08:42+02:00*%
%TF.ProjectId,Sensors,53656e73-6f72-4732-9e6b-696361645f70,Rev.01*%
%TF.SameCoordinates,Original*%
%TF.FileFunction,Copper,L1,Top*%
%TF.FilePolarity,Positive*%
%FSLAX46Y46*%
G04 Gerber Fmt 4.6, Leading zero omitted, Abs format (unit mm)*
G04 Created by KiCad (PCBNEW (5.1.9)-1) date 2022-04-21 22:08:42*
%MOMM*%
%LPD*%
G01*
G04 APERTURE LIST*
%TA.AperFunction,NonConductor*%
%ADD10C,0.150000*%
%TD*%
%TA.AperFunction,ComponentPad*%
%ADD11C,1.524000*%
%TD*%
%TA.AperFunction,ComponentPad*%
%ADD12O,1.700000X2.000000*%
%TD*%
%TA.AperFunction,Conductor*%
%ADD13C,0.250000*%
%TD*%
%TA.AperFunction,Conductor*%
%ADD14C,0.254000*%
%TD*%
%TA.AperFunction,Conductor*%
%ADD15C,0.100000*%
%TD*%
G04 APERTURE END LIST*
D10*
X89678571Y-52535714D02*
X88964285Y-53035714D01*
X89678571Y-53392857D02*
X88178571Y-53392857D01*
X88178571Y-52821428D01*
X88250000Y-52678571D01*
X88321428Y-52607142D01*
X88464285Y-52535714D01*
X88678571Y-52535714D01*
X88821428Y-52607142D01*
X88892857Y-52678571D01*
X88964285Y-52821428D01*
X88964285Y-53392857D01*
X89607142Y-51321428D02*
X89678571Y-51464285D01*
X89678571Y-51750000D01*
X89607142Y-51892857D01*
X89464285Y-51964285D01*
X88892857Y-51964285D01*
X88750000Y-51892857D01*
X88678571Y-51750000D01*
X88678571Y-51464285D01*
X88750000Y-51321428D01*
X88892857Y-51250000D01*
X89035714Y-51250000D01*
X89178571Y-51964285D01*
X88678571Y-50750000D02*
X89678571Y-50392857D01*
X88678571Y-50035714D01*
X89535714Y-49464285D02*
X89607142Y-49392857D01*
X89678571Y-49464285D01*
X89607142Y-49535714D01*
X89535714Y-49464285D01*
X89678571Y-49464285D01*
X88178571Y-48464285D02*
X88178571Y-48321428D01*
X88250000Y-48178571D01*
X88321428Y-48107142D01*
X88464285Y-48035714D01*
X88750000Y-47964285D01*
X89107142Y-47964285D01*
X89392857Y-48035714D01*
X89535714Y-48107142D01*
X89607142Y-48178571D01*
X89678571Y-48321428D01*
X89678571Y-48464285D01*
X89607142Y-48607142D01*
X89535714Y-48678571D01*
X89392857Y-48750000D01*
X89107142Y-48821428D01*
X88750000Y-48821428D01*
X88464285Y-48750000D01*
X88321428Y-48678571D01*
X88250000Y-48607142D01*
X88178571Y-48464285D01*
X89678571Y-46535714D02*
X89678571Y-47392857D01*
X89678571Y-46964285D02*
X88178571Y-46964285D01*
X88392857Y-47107142D01*
X88535714Y-47250000D01*
X88607142Y-47392857D01*
D11*
%TO.P,SW1,1*%
%TO.N,Net-(J1-Pad1)*%
X86500000Y-46000000D03*
%TO.P,SW1,2*%
%TO.N,Net-(R1-Pad1)*%
X73500000Y-46000000D03*
%TD*%
%TO.P,D1,1*%
%TO.N,Net-(D1-Pad1)*%
%TA.AperFunction,SMDPad,CuDef*%
G36*
G01*
X73987500Y-48043750D02*
X73987500Y-48956250D01*
G75*
G02*
X73743750Y-49200000I-243750J0D01*
G01*
X73256250Y-49200000D01*
G75*
G02*
X73012500Y-48956250I0J243750D01*
G01*
X73012500Y-48043750D01*
G75*
G02*
X73256250Y-47800000I243750J0D01*
G01*
X73743750Y-47800000D01*
G75*
G02*
X73987500Y-48043750I0J-243750D01*
G01*
G37*
%TD.AperFunction*%
%TO.P,D1,2*%
%TO.N,Net-(D1-Pad2)*%
%TA.AperFunction,SMDPad,CuDef*%
G36*
G01*
X72112500Y-48043750D02*
X72112500Y-48956250D01*
G75*
G02*
X71868750Y-49200000I-243750J0D01*
G01*
X71381250Y-49200000D01*
G75*
G02*
X71137500Y-48956250I0J243750D01*
G01*
X71137500Y-48043750D01*
G75*
G02*
X71381250Y-47800000I243750J0D01*
G01*
X71868750Y-47800000D01*
G75*
G02*
X72112500Y-48043750I0J-243750D01*
G01*
G37*
%TD.AperFunction*%
%TD*%
%TO.P,J1,1*%
%TO.N,Net-(J1-Pad1)*%
%TA.AperFunction,ComponentPad*%
G36*
G01*
X82100000Y-41250000D02*
X82100000Y-42750000D01*
G75*
G02*
X81850000Y-43000000I-250000J0D01*
G01*
X80650000Y-43000000D01*
G75*
G02*
X80400000Y-42750000I0J250000D01*
G01*
X80400000Y-41250000D01*
G75*
G02*
X80650000Y-41000000I250000J0D01*
G01*
X81850000Y-41000000D01*
G75*
G02*
X82100000Y-41250000I0J-250000D01*
G01*
G37*
%TD.AperFunction*%
D12*
%TO.P,J1,2*%
%TO.N,Net-(D1-Pad1)*%
X78750000Y-42000000D03*
%TD*%
%TO.P,R1,1*%
%TO.N,Net-(R1-Pad1)*%
%TA.AperFunction,SMDPad,CuDef*%
G36*
G01*
X74012500Y-51049998D02*
X74012500Y-51950002D01*
G75*
G02*
X73762502Y-52200000I-249998J0D01*
G01*
X73237498Y-52200000D01*
G75*
G02*
X72987500Y-51950002I0J249998D01*
G01*
X72987500Y-51049998D01*
G75*
G02*
X73237498Y-50800000I249998J0D01*
G01*
X73762502Y-50800000D01*
G75*
G02*
X74012500Y-51049998I0J-249998D01*
G01*
G37*
%TD.AperFunction*%
%TO.P,R1,2*%
%TO.N,Net-(D1-Pad2)*%
%TA.AperFunction,SMDPad,CuDef*%
G36*
G01*
X72187500Y-51049998D02*
X72187500Y-51950002D01*
G75*
G02*
X71937502Y-52200000I-249998J0D01*
G01*
X71412498Y-52200000D01*
G75*
G02*
X71162500Y-51950002I0J249998D01*
G01*
X71162500Y-51049998D01*
G75*
G02*
X71412498Y-50800000I249998J0D01*
G01*
X71937502Y-50800000D01*
G75*
G02*
X72187500Y-51049998I0J-249998D01*
G01*
G37*
%TD.AperFunction*%
%TD*%
D11*
%TO.P,SW2,2*%
%TO.N,Net-(R1-Pad1)*%
X73500000Y-54000000D03*
%TO.P,SW2,1*%
%TO.N,Net-(J1-Pad1)*%
X86500000Y-54000000D03*
%TD*%
D13*
%TO.N,Net-(D1-Pad2)*%
X71625000Y-51450000D02*
X71675000Y-51500000D01*
X71625000Y-48500000D02*
X71625000Y-51450000D01*
%TO.N,Net-(J1-Pad1)*%
X82500000Y-46000000D02*
X86500000Y-46000000D01*
X81250000Y-44750000D02*
X82500000Y-46000000D01*
X81250000Y-42000000D02*
X81250000Y-44750000D01*
%TO.N,Net-(R1-Pad1)*%
X73500000Y-51500000D02*
X73500000Y-54000000D01*
%TD*%
D14*
%TO.N,Net-(D1-Pad1)*%
X81310689Y-38786339D02*
X82603653Y-39014323D01*
X83861407Y-39390870D01*
X85066943Y-39910887D01*
X86203956Y-40567343D01*
X87257072Y-41351358D01*
X88212048Y-42252332D01*
X89055971Y-43258079D01*
X89777427Y-44355000D01*
X90366660Y-45528259D01*
X90370933Y-45540000D01*
X87821564Y-45540000D01*
X87738005Y-45338273D01*
X87585120Y-45109465D01*
X87390535Y-44914880D01*
X87161727Y-44761995D01*
X86907490Y-44656686D01*
X86637592Y-44603000D01*
X86362408Y-44603000D01*
X86092510Y-44656686D01*
X85838273Y-44761995D01*
X85609465Y-44914880D01*
X85414880Y-45109465D01*
X85327659Y-45240000D01*
X82814802Y-45240000D01*
X82010000Y-44435199D01*
X82010000Y-43622313D01*
X82023254Y-43621008D01*
X82189850Y-43570472D01*
X82343386Y-43488405D01*
X82477962Y-43377962D01*
X82588405Y-43243386D01*
X82670472Y-43089850D01*
X82721008Y-42923254D01*
X82738072Y-42750000D01*
X82738072Y-41250000D01*
X82721008Y-41076746D01*
X82670472Y-40910150D01*
X82588405Y-40756614D01*
X82477962Y-40622038D01*
X82343386Y-40511595D01*
X82189850Y-40429528D01*
X82023254Y-40378992D01*
X81850000Y-40361928D01*
X80650000Y-40361928D01*
X80476746Y-40378992D01*
X80310150Y-40429528D01*
X80156614Y-40511595D01*
X80022038Y-40622038D01*
X79911595Y-40756614D01*
X79857086Y-40858593D01*
X79856802Y-40858205D01*
X79642046Y-40661336D01*
X79393009Y-40510146D01*
X79119261Y-40410446D01*
X79106890Y-40408524D01*
X78877000Y-40529845D01*
X78877000Y-41873000D01*
X78897000Y-41873000D01*
X78897000Y-42127000D01*
X78877000Y-42127000D01*
X78877000Y-43470155D01*
X79106890Y-43591476D01*
X79119261Y-43589554D01*
X79393009Y-43489854D01*
X79642046Y-43338664D01*
X79856802Y-43141795D01*
X79857086Y-43141407D01*
X79911595Y-43243386D01*
X80022038Y-43377962D01*
X80156614Y-43488405D01*
X80310150Y-43570472D01*
X80476746Y-43621008D01*
X80490001Y-43622313D01*
X80490001Y-44712668D01*
X80486324Y-44750000D01*
X80490001Y-44787333D01*
X80500998Y-44898986D01*
X80514180Y-44942442D01*
X80544454Y-45042246D01*
X80615026Y-45174276D01*
X80668965Y-45240000D01*
X80710000Y-45290001D01*
X80738998Y-45313799D01*
X81936201Y-46511003D01*
X81959999Y-46540001D01*
X81988997Y-46563799D01*
X82075723Y-46634974D01*
X82207753Y-46705546D01*
X82351014Y-46749003D01*
X82462667Y-46760000D01*
X82462677Y-46760000D01*
X82500000Y-46763676D01*
X82537323Y-46760000D01*
X85327659Y-46760000D01*
X85414880Y-46890535D01*
X85609465Y-47085120D01*
X85838273Y-47238005D01*
X86092510Y-47343314D01*
X86362408Y-47397000D01*
X86637592Y-47397000D01*
X86907490Y-47343314D01*
X87161727Y-47238005D01*
X87247500Y-47180693D01*
X87247500Y-52819307D01*
X87161727Y-52761995D01*
X86907490Y-52656686D01*
X86637592Y-52603000D01*
X86362408Y-52603000D01*
X86092510Y-52656686D01*
X85838273Y-52761995D01*
X85609465Y-52914880D01*
X85414880Y-53109465D01*
X85261995Y-53338273D01*
X85156686Y-53592510D01*
X85103000Y-53862408D01*
X85103000Y-54137592D01*
X85156686Y-54407490D01*
X85261995Y-54661727D01*
X85414880Y-54890535D01*
X85609465Y-55085120D01*
X85838273Y-55238005D01*
X86092510Y-55343314D01*
X86362408Y-55397000D01*
X86637592Y-55397000D01*
X86907490Y-55343314D01*
X87161727Y-55238005D01*
X87390535Y-55085120D01*
X87585120Y-54890535D01*
X87738005Y-54661727D01*
X87821564Y-54460000D01*
X90370933Y-54460000D01*
X90366660Y-54471741D01*
X89777427Y-55645000D01*
X89055971Y-56741921D01*
X88212048Y-57747668D01*
X87257072Y-58648642D01*
X86203956Y-59432657D01*
X85066943Y-60089113D01*
X83861407Y-60609130D01*
X82603653Y-60985677D01*
X81310689Y-61213661D01*
X80000000Y-61290000D01*
X78689311Y-61213661D01*
X77396347Y-60985677D01*
X76138593Y-60609130D01*
X74933057Y-60089113D01*
X73796044Y-59432657D01*
X72742928Y-58648642D01*
X71787952Y-57747668D01*
X70944029Y-56741921D01*
X70222573Y-55645000D01*
X69633340Y-54471741D01*
X69184298Y-53238008D01*
X68881520Y-51960488D01*
X68729101Y-50656455D01*
X68729101Y-49343545D01*
X68881024Y-48043750D01*
X70499428Y-48043750D01*
X70499428Y-48956250D01*
X70516372Y-49128285D01*
X70566553Y-49293709D01*
X70648042Y-49446164D01*
X70757708Y-49579792D01*
X70865000Y-49667845D01*
X70865001Y-50356004D01*
X70784538Y-50422038D01*
X70674095Y-50556613D01*
X70592028Y-50710148D01*
X70541492Y-50876744D01*
X70524428Y-51049998D01*
X70524428Y-51950002D01*
X70541492Y-52123256D01*
X70592028Y-52289852D01*
X70674095Y-52443387D01*
X70784538Y-52577962D01*
X70919113Y-52688405D01*
X71072648Y-52770472D01*
X71239244Y-52821008D01*
X71412498Y-52838072D01*
X71937502Y-52838072D01*
X72110756Y-52821008D01*
X72277352Y-52770472D01*
X72430887Y-52688405D01*
X72565462Y-52577962D01*
X72587500Y-52551109D01*
X72609538Y-52577962D01*
X72740000Y-52685030D01*
X72740001Y-52827659D01*
X72609465Y-52914880D01*
X72414880Y-53109465D01*
X72261995Y-53338273D01*
X72156686Y-53592510D01*
X72103000Y-53862408D01*
X72103000Y-54137592D01*
X72156686Y-54407490D01*
X72261995Y-54661727D01*
X72414880Y-54890535D01*
X72609465Y-55085120D01*
X72838273Y-55238005D01*
X73092510Y-55343314D01*
X73362408Y-55397000D01*
X73637592Y-55397000D01*
X73907490Y-55343314D01*
X74161727Y-55238005D01*
X74390535Y-55085120D01*
X74585120Y-54890535D01*
X74738005Y-54661727D01*
X74843314Y-54407490D01*
X74897000Y-54137592D01*
X74897000Y-53862408D01*
X74843314Y-53592510D01*
X74738005Y-53338273D01*
X74585120Y-53109465D01*
X74390535Y-52914880D01*
X74260000Y-52827659D01*
X74260000Y-52685030D01*
X74390462Y-52577962D01*
X74500905Y-52443387D01*
X74582972Y-52289852D01*
X74633508Y-52123256D01*
X74650572Y-51950002D01*
X74650572Y-51049998D01*
X74633508Y-50876744D01*
X74582972Y-50710148D01*
X74500905Y-50556613D01*
X74390462Y-50422038D01*
X74255887Y-50311595D01*
X74102352Y-50229528D01*
X73935756Y-50178992D01*
X73762502Y-50161928D01*
X73237498Y-50161928D01*
X73064244Y-50178992D01*
X72897648Y-50229528D01*
X72744113Y-50311595D01*
X72609538Y-50422038D01*
X72587500Y-50448891D01*
X72565462Y-50422038D01*
X72430887Y-50311595D01*
X72385000Y-50287068D01*
X72385000Y-49667845D01*
X72492292Y-49579792D01*
X72497508Y-49573436D01*
X72561315Y-49651185D01*
X72658006Y-49730537D01*
X72768320Y-49789502D01*
X72888018Y-49825812D01*
X73012500Y-49838072D01*
X73214250Y-49835000D01*
X73373000Y-49676250D01*
X73373000Y-48627000D01*
X73627000Y-48627000D01*
X73627000Y-49676250D01*
X73785750Y-49835000D01*
X73987500Y-49838072D01*
X74111982Y-49825812D01*
X74231680Y-49789502D01*
X74341994Y-49730537D01*
X74438685Y-49651185D01*
X74518037Y-49554494D01*
X74577002Y-49444180D01*
X74613312Y-49324482D01*
X74625572Y-49200000D01*
X74622500Y-48785750D01*
X74463750Y-48627000D01*
X73627000Y-48627000D01*
X73373000Y-48627000D01*
X73353000Y-48627000D01*
X73353000Y-48373000D01*
X73373000Y-48373000D01*
X73373000Y-48353000D01*
X73627000Y-48353000D01*
X73627000Y-48373000D01*
X74463750Y-48373000D01*
X74622500Y-48214250D01*
X74625572Y-47800000D01*
X74613312Y-47675518D01*
X74577002Y-47555820D01*
X74518037Y-47445506D01*
X74438685Y-47348815D01*
X74341994Y-47269463D01*
X74231680Y-47210498D01*
X74211882Y-47204492D01*
X74390535Y-47085120D01*
X74585120Y-46890535D01*
X74738005Y-46661727D01*
X74843314Y-46407490D01*
X74897000Y-46137592D01*
X74897000Y-45862408D01*
X74843314Y-45592510D01*
X74738005Y-45338273D01*
X74585120Y-45109465D01*
X74390535Y-44914880D01*
X74161727Y-44761995D01*
X73907490Y-44656686D01*
X73637592Y-44603000D01*
X73362408Y-44603000D01*
X73092510Y-44656686D01*
X72838273Y-44761995D01*
X72609465Y-44914880D01*
X72414880Y-45109465D01*
X72261995Y-45338273D01*
X72156686Y-45592510D01*
X72103000Y-45862408D01*
X72103000Y-46137592D01*
X72156686Y-46407490D01*
X72261995Y-46661727D01*
X72414880Y-46890535D01*
X72609465Y-47085120D01*
X72788118Y-47204492D01*
X72768320Y-47210498D01*
X72658006Y-47269463D01*
X72561315Y-47348815D01*
X72497508Y-47426564D01*
X72492292Y-47420208D01*
X72358664Y-47310542D01*
X72206209Y-47229053D01*
X72040785Y-47178872D01*
X71868750Y-47161928D01*
X71381250Y-47161928D01*
X71209215Y-47178872D01*
X71043791Y-47229053D01*
X70891336Y-47310542D01*
X70757708Y-47420208D01*
X70648042Y-47553836D01*
X70566553Y-47706291D01*
X70516372Y-47871715D01*
X70499428Y-48043750D01*
X68881024Y-48043750D01*
X68881520Y-48039512D01*
X69184298Y-46761992D01*
X69633340Y-45528259D01*
X70222573Y-44355000D01*
X70944029Y-43258079D01*
X71697824Y-42359742D01*
X77278715Y-42359742D01*
X77347904Y-42642745D01*
X77470975Y-42906812D01*
X77643198Y-43141795D01*
X77857954Y-43338664D01*
X78106991Y-43489854D01*
X78380739Y-43589554D01*
X78393110Y-43591476D01*
X78623000Y-43470155D01*
X78623000Y-42127000D01*
X77422768Y-42127000D01*
X77278715Y-42359742D01*
X71697824Y-42359742D01*
X71787952Y-42252332D01*
X72436712Y-41640258D01*
X77278715Y-41640258D01*
X77422768Y-41873000D01*
X78623000Y-41873000D01*
X78623000Y-40529845D01*
X78393110Y-40408524D01*
X78380739Y-40410446D01*
X78106991Y-40510146D01*
X77857954Y-40661336D01*
X77643198Y-40858205D01*
X77470975Y-41093188D01*
X77347904Y-41357255D01*
X77278715Y-41640258D01*
X72436712Y-41640258D01*
X72742928Y-41351358D01*
X73796044Y-40567343D01*
X74933057Y-39910887D01*
X76138593Y-39390870D01*
X77396347Y-39014323D01*
X78689311Y-38786339D01*
X80000000Y-38710000D01*
X81310689Y-38786339D01*
%TA.AperFunction,Conductor*%
D15*
G36*
X81310689Y-38786339D02*
G01*
X82603653Y-39014323D01*
X83861407Y-39390870D01*
X85066943Y-39910887D01*
X86203956Y-40567343D01*
X87257072Y-41351358D01*
X88212048Y-42252332D01*
X89055971Y-43258079D01*
X89777427Y-44355000D01*
X90366660Y-45528259D01*
X90370933Y-45540000D01*
X87821564Y-45540000D01*
X87738005Y-45338273D01*
X87585120Y-45109465D01*
X87390535Y-44914880D01*
X87161727Y-44761995D01*
X86907490Y-44656686D01*
X86637592Y-44603000D01*
X86362408Y-44603000D01*
X86092510Y-44656686D01*
X85838273Y-44761995D01*
X85609465Y-44914880D01*
X85414880Y-45109465D01*
X85327659Y-45240000D01*
X82814802Y-45240000D01*
X82010000Y-44435199D01*
X82010000Y-43622313D01*
X82023254Y-43621008D01*
X82189850Y-43570472D01*
X82343386Y-43488405D01*
X82477962Y-43377962D01*
X82588405Y-43243386D01*
X82670472Y-43089850D01*
X82721008Y-42923254D01*
X82738072Y-42750000D01*
X82738072Y-41250000D01*
X82721008Y-41076746D01*
X82670472Y-40910150D01*
X82588405Y-40756614D01*
X82477962Y-40622038D01*
X82343386Y-40511595D01*
X82189850Y-40429528D01*
X82023254Y-40378992D01*
X81850000Y-40361928D01*
X80650000Y-40361928D01*
X80476746Y-40378992D01*
X80310150Y-40429528D01*
X80156614Y-40511595D01*
X80022038Y-40622038D01*
X79911595Y-40756614D01*
X79857086Y-40858593D01*
X79856802Y-40858205D01*
X79642046Y-40661336D01*
X79393009Y-40510146D01*
X79119261Y-40410446D01*
X79106890Y-40408524D01*
X78877000Y-40529845D01*
X78877000Y-41873000D01*
X78897000Y-41873000D01*
X78897000Y-42127000D01*
X78877000Y-42127000D01*
X78877000Y-43470155D01*
X79106890Y-43591476D01*
X79119261Y-43589554D01*
X79393009Y-43489854D01*
X79642046Y-43338664D01*
X79856802Y-43141795D01*
X79857086Y-43141407D01*
X79911595Y-43243386D01*
X80022038Y-43377962D01*
X80156614Y-43488405D01*
X80310150Y-43570472D01*
X80476746Y-43621008D01*
X80490001Y-43622313D01*
X80490001Y-44712668D01*
X80486324Y-44750000D01*
X80490001Y-44787333D01*
X80500998Y-44898986D01*
X80514180Y-44942442D01*
X80544454Y-45042246D01*
X80615026Y-45174276D01*
X80668965Y-45240000D01*
X80710000Y-45290001D01*
X80738998Y-45313799D01*
X81936201Y-46511003D01*
X81959999Y-46540001D01*
X81988997Y-46563799D01*
X82075723Y-46634974D01*
X82207753Y-46705546D01*
X82351014Y-46749003D01*
X82462667Y-46760000D01*
X82462677Y-46760000D01*
X82500000Y-46763676D01*
X82537323Y-46760000D01*
X85327659Y-46760000D01*
X85414880Y-46890535D01*
X85609465Y-47085120D01*
X85838273Y-47238005D01*
X86092510Y-47343314D01*
X86362408Y-47397000D01*
X86637592Y-47397000D01*
X86907490Y-47343314D01*
X87161727Y-47238005D01*
X87247500Y-47180693D01*
X87247500Y-52819307D01*
X87161727Y-52761995D01*
X86907490Y-52656686D01*
X86637592Y-52603000D01*
X86362408Y-52603000D01*
X86092510Y-52656686D01*
X85838273Y-52761995D01*
X85609465Y-52914880D01*
X85414880Y-53109465D01*
X85261995Y-53338273D01*
X85156686Y-53592510D01*
X85103000Y-53862408D01*
X85103000Y-54137592D01*
X85156686Y-54407490D01*
X85261995Y-54661727D01*
X85414880Y-54890535D01*
X85609465Y-55085120D01*
X85838273Y-55238005D01*
X86092510Y-55343314D01*
X86362408Y-55397000D01*
X86637592Y-55397000D01*
X86907490Y-55343314D01*
X87161727Y-55238005D01*
X87390535Y-55085120D01*
X87585120Y-54890535D01*
X87738005Y-54661727D01*
X87821564Y-54460000D01*
X90370933Y-54460000D01*
X90366660Y-54471741D01*
X89777427Y-55645000D01*
X89055971Y-56741921D01*
X88212048Y-57747668D01*
X87257072Y-58648642D01*
X86203956Y-59432657D01*
X85066943Y-60089113D01*
X83861407Y-60609130D01*
X82603653Y-60985677D01*
X81310689Y-61213661D01*
X80000000Y-61290000D01*
X78689311Y-61213661D01*
X77396347Y-60985677D01*
X76138593Y-60609130D01*
X74933057Y-60089113D01*
X73796044Y-59432657D01*
X72742928Y-58648642D01*
X71787952Y-57747668D01*
X70944029Y-56741921D01*
X70222573Y-55645000D01*
X69633340Y-54471741D01*
X69184298Y-53238008D01*
X68881520Y-51960488D01*
X68729101Y-50656455D01*
X68729101Y-49343545D01*
X68881024Y-48043750D01*
X70499428Y-48043750D01*
X70499428Y-48956250D01*
X70516372Y-49128285D01*
X70566553Y-49293709D01*
X70648042Y-49446164D01*
X70757708Y-49579792D01*
X70865000Y-49667845D01*
X70865001Y-50356004D01*
X70784538Y-50422038D01*
X70674095Y-50556613D01*
X70592028Y-50710148D01*
X70541492Y-50876744D01*
X70524428Y-51049998D01*
X70524428Y-51950002D01*
X70541492Y-52123256D01*
X70592028Y-52289852D01*
X70674095Y-52443387D01*
X70784538Y-52577962D01*
X70919113Y-52688405D01*
X71072648Y-52770472D01*
X71239244Y-52821008D01*
X71412498Y-52838072D01*
X71937502Y-52838072D01*
X72110756Y-52821008D01*
X72277352Y-52770472D01*
X72430887Y-52688405D01*
X72565462Y-52577962D01*
X72587500Y-52551109D01*
X72609538Y-52577962D01*
X72740000Y-52685030D01*
X72740001Y-52827659D01*
X72609465Y-52914880D01*
X72414880Y-53109465D01*
X72261995Y-53338273D01*
X72156686Y-53592510D01*
X72103000Y-53862408D01*
X72103000Y-54137592D01*
X72156686Y-54407490D01*
X72261995Y-54661727D01*
X72414880Y-54890535D01*
X72609465Y-55085120D01*
X72838273Y-55238005D01*
X73092510Y-55343314D01*
X73362408Y-55397000D01*
X73637592Y-55397000D01*
X73907490Y-55343314D01*
X74161727Y-55238005D01*
X74390535Y-55085120D01*
X74585120Y-54890535D01*
X74738005Y-54661727D01*
X74843314Y-54407490D01*
X74897000Y-54137592D01*
X74897000Y-53862408D01*
X74843314Y-53592510D01*
X74738005Y-53338273D01*
X74585120Y-53109465D01*
X74390535Y-52914880D01*
X74260000Y-52827659D01*
X74260000Y-52685030D01*
X74390462Y-52577962D01*
X74500905Y-52443387D01*
X74582972Y-52289852D01*
X74633508Y-52123256D01*
X74650572Y-51950002D01*
X74650572Y-51049998D01*
X74633508Y-50876744D01*
X74582972Y-50710148D01*
X74500905Y-50556613D01*
X74390462Y-50422038D01*
X74255887Y-50311595D01*
X74102352Y-50229528D01*
X73935756Y-50178992D01*
X73762502Y-50161928D01*
X73237498Y-50161928D01*
X73064244Y-50178992D01*
X72897648Y-50229528D01*
X72744113Y-50311595D01*
X72609538Y-50422038D01*
X72587500Y-50448891D01*
X72565462Y-50422038D01*
X72430887Y-50311595D01*
X72385000Y-50287068D01*
X72385000Y-49667845D01*
X72492292Y-49579792D01*
X72497508Y-49573436D01*
X72561315Y-49651185D01*
X72658006Y-49730537D01*
X72768320Y-49789502D01*
X72888018Y-49825812D01*
X73012500Y-49838072D01*
X73214250Y-49835000D01*
X73373000Y-49676250D01*
X73373000Y-48627000D01*
X73627000Y-48627000D01*
X73627000Y-49676250D01*
X73785750Y-49835000D01*
X73987500Y-49838072D01*
X74111982Y-49825812D01*
X74231680Y-49789502D01*
X74341994Y-49730537D01*
X74438685Y-49651185D01*
X74518037Y-49554494D01*
X74577002Y-49444180D01*
X74613312Y-49324482D01*
X74625572Y-49200000D01*
X74622500Y-48785750D01*
X74463750Y-48627000D01*
X73627000Y-48627000D01*
X73373000Y-48627000D01*
X73353000Y-48627000D01*
X73353000Y-48373000D01*
X73373000Y-48373000D01*
X73373000Y-48353000D01*
X73627000Y-48353000D01*
X73627000Y-48373000D01*
X74463750Y-48373000D01*
X74622500Y-48214250D01*
X74625572Y-47800000D01*
X74613312Y-47675518D01*
X74577002Y-47555820D01*
X74518037Y-47445506D01*
X74438685Y-47348815D01*
X74341994Y-47269463D01*
X74231680Y-47210498D01*
X74211882Y-47204492D01*
X74390535Y-47085120D01*
X74585120Y-46890535D01*
X74738005Y-46661727D01*
X74843314Y-46407490D01*
X74897000Y-46137592D01*
X74897000Y-45862408D01*
X74843314Y-45592510D01*
X74738005Y-45338273D01*
X74585120Y-45109465D01*
X74390535Y-44914880D01*
X74161727Y-44761995D01*
X73907490Y-44656686D01*
X73637592Y-44603000D01*
X73362408Y-44603000D01*
X73092510Y-44656686D01*
X72838273Y-44761995D01*
X72609465Y-44914880D01*
X72414880Y-45109465D01*
X72261995Y-45338273D01*
X72156686Y-45592510D01*
X72103000Y-45862408D01*
X72103000Y-46137592D01*
X72156686Y-46407490D01*
X72261995Y-46661727D01*
X72414880Y-46890535D01*
X72609465Y-47085120D01*
X72788118Y-47204492D01*
X72768320Y-47210498D01*
X72658006Y-47269463D01*
X72561315Y-47348815D01*
X72497508Y-47426564D01*
X72492292Y-47420208D01*
X72358664Y-47310542D01*
X72206209Y-47229053D01*
X72040785Y-47178872D01*
X71868750Y-47161928D01*
X71381250Y-47161928D01*
X71209215Y-47178872D01*
X71043791Y-47229053D01*
X70891336Y-47310542D01*
X70757708Y-47420208D01*
X70648042Y-47553836D01*
X70566553Y-47706291D01*
X70516372Y-47871715D01*
X70499428Y-48043750D01*
X68881024Y-48043750D01*
X68881520Y-48039512D01*
X69184298Y-46761992D01*
X69633340Y-45528259D01*
X70222573Y-44355000D01*
X70944029Y-43258079D01*
X71697824Y-42359742D01*
X77278715Y-42359742D01*
X77347904Y-42642745D01*
X77470975Y-42906812D01*
X77643198Y-43141795D01*
X77857954Y-43338664D01*
X78106991Y-43489854D01*
X78380739Y-43589554D01*
X78393110Y-43591476D01*
X78623000Y-43470155D01*
X78623000Y-42127000D01*
X77422768Y-42127000D01*
X77278715Y-42359742D01*
X71697824Y-42359742D01*
X71787952Y-42252332D01*
X72436712Y-41640258D01*
X77278715Y-41640258D01*
X77422768Y-41873000D01*
X78623000Y-41873000D01*
X78623000Y-40529845D01*
X78393110Y-40408524D01*
X78380739Y-40410446D01*
X78106991Y-40510146D01*
X77857954Y-40661336D01*
X77643198Y-40858205D01*
X77470975Y-41093188D01*
X77347904Y-41357255D01*
X77278715Y-41640258D01*
X72436712Y-41640258D01*
X72742928Y-41351358D01*
X73796044Y-40567343D01*
X74933057Y-39910887D01*
X76138593Y-39390870D01*
X77396347Y-39014323D01*
X78689311Y-38786339D01*
X80000000Y-38710000D01*
X81310689Y-38786339D01*
G37*
%TD.AperFunction*%
%TD*%
M02*
