%TF.GenerationSoftware,KiCad,Pcbnew,(5.1.9)-1*%
%TF.CreationDate,2022-04-21T22:08:42+02:00*%
%TF.ProjectId,Sensors,53656e73-6f72-4732-9e6b-696361645f70,Rev.01*%
%TF.SameCoordinates,Original*%
%TF.FileFunction,Copper,L2,Bot*%
%TF.FilePolarity,Positive*%
%FSLAX46Y46*%
G04 Gerber Fmt 4.6, Leading zero omitted, Abs format (unit mm)*
G04 Created by KiCad (PCBNEW (5.1.9)-1) date 2022-04-21 22:08:42*
%MOMM*%
%LPD*%
G01*
G04 APERTURE LIST*
%TA.AperFunction,ComponentPad*%
%ADD10C,1.524000*%
%TD*%
%TA.AperFunction,ComponentPad*%
%ADD11O,1.700000X2.000000*%
%TD*%
%TA.AperFunction,Conductor*%
%ADD12C,0.250000*%
%TD*%
%TA.AperFunction,Conductor*%
%ADD13C,0.254000*%
%TD*%
%TA.AperFunction,Conductor*%
%ADD14C,0.100000*%
%TD*%
G04 APERTURE END LIST*
D10*
%TO.P,SW1,1*%
%TO.N,Net-(J1-Pad1)*%
X86500000Y-46000000D03*
%TO.P,SW1,2*%
%TO.N,Net-(R1-Pad1)*%
X73500000Y-46000000D03*
%TD*%
%TO.P,J1,1*%
%TO.N,Net-(J1-Pad1)*%
%TA.AperFunction,ComponentPad*%
G36*
G01*
X82100000Y-41250000D02*
X82100000Y-42750000D01*
G75*
G02*
X81850000Y-43000000I-250000J0D01*
G01*
X80650000Y-43000000D01*
G75*
G02*
X80400000Y-42750000I0J250000D01*
G01*
X80400000Y-41250000D01*
G75*
G02*
X80650000Y-41000000I250000J0D01*
G01*
X81850000Y-41000000D01*
G75*
G02*
X82100000Y-41250000I0J-250000D01*
G01*
G37*
%TD.AperFunction*%
D11*
%TO.P,J1,2*%
%TO.N,Net-(D1-Pad1)*%
X78750000Y-42000000D03*
%TD*%
D10*
%TO.P,SW2,2*%
%TO.N,Net-(R1-Pad1)*%
X73500000Y-54000000D03*
%TO.P,SW2,1*%
%TO.N,Net-(J1-Pad1)*%
X86500000Y-54000000D03*
%TD*%
D12*
%TO.N,Net-(J1-Pad1)*%
X86500000Y-46000000D02*
X86500000Y-54000000D01*
%TO.N,Net-(R1-Pad1)*%
X73500000Y-46000000D02*
X73500000Y-54000000D01*
%TD*%
D13*
%TO.N,Net-(D1-Pad1)*%
X81310689Y-38786339D02*
X82603653Y-39014323D01*
X83861407Y-39390870D01*
X85066943Y-39910887D01*
X86203956Y-40567343D01*
X87257072Y-41351358D01*
X88212048Y-42252332D01*
X89055971Y-43258079D01*
X89777427Y-44355000D01*
X90366660Y-45528259D01*
X90815702Y-46761992D01*
X91118480Y-48039512D01*
X91270899Y-49343545D01*
X91270899Y-50656455D01*
X91118480Y-51960488D01*
X90815702Y-53238008D01*
X90366660Y-54471741D01*
X89777427Y-55645000D01*
X89055971Y-56741921D01*
X88212048Y-57747668D01*
X87257072Y-58648642D01*
X86203956Y-59432657D01*
X85066943Y-60089113D01*
X83861407Y-60609130D01*
X82603653Y-60985677D01*
X81310689Y-61213661D01*
X80000000Y-61290000D01*
X78689311Y-61213661D01*
X77396347Y-60985677D01*
X76138593Y-60609130D01*
X74933057Y-60089113D01*
X73796044Y-59432657D01*
X72742928Y-58648642D01*
X71787952Y-57747668D01*
X70944029Y-56741921D01*
X70222573Y-55645000D01*
X69633340Y-54471741D01*
X69184298Y-53238008D01*
X68881520Y-51960488D01*
X68729101Y-50656455D01*
X68729101Y-49343545D01*
X68881520Y-48039512D01*
X69184298Y-46761992D01*
X69511719Y-45862408D01*
X72103000Y-45862408D01*
X72103000Y-46137592D01*
X72156686Y-46407490D01*
X72261995Y-46661727D01*
X72414880Y-46890535D01*
X72609465Y-47085120D01*
X72740000Y-47172341D01*
X72740001Y-52827659D01*
X72609465Y-52914880D01*
X72414880Y-53109465D01*
X72261995Y-53338273D01*
X72156686Y-53592510D01*
X72103000Y-53862408D01*
X72103000Y-54137592D01*
X72156686Y-54407490D01*
X72261995Y-54661727D01*
X72414880Y-54890535D01*
X72609465Y-55085120D01*
X72838273Y-55238005D01*
X73092510Y-55343314D01*
X73362408Y-55397000D01*
X73637592Y-55397000D01*
X73907490Y-55343314D01*
X74161727Y-55238005D01*
X74390535Y-55085120D01*
X74585120Y-54890535D01*
X74738005Y-54661727D01*
X74843314Y-54407490D01*
X74897000Y-54137592D01*
X74897000Y-53862408D01*
X74843314Y-53592510D01*
X74738005Y-53338273D01*
X74585120Y-53109465D01*
X74390535Y-52914880D01*
X74260000Y-52827659D01*
X74260000Y-47172341D01*
X74390535Y-47085120D01*
X74585120Y-46890535D01*
X74738005Y-46661727D01*
X74843314Y-46407490D01*
X74897000Y-46137592D01*
X74897000Y-45862408D01*
X85103000Y-45862408D01*
X85103000Y-46137592D01*
X85156686Y-46407490D01*
X85261995Y-46661727D01*
X85414880Y-46890535D01*
X85609465Y-47085120D01*
X85740000Y-47172341D01*
X85740001Y-52827659D01*
X85609465Y-52914880D01*
X85414880Y-53109465D01*
X85261995Y-53338273D01*
X85156686Y-53592510D01*
X85103000Y-53862408D01*
X85103000Y-54137592D01*
X85156686Y-54407490D01*
X85261995Y-54661727D01*
X85414880Y-54890535D01*
X85609465Y-55085120D01*
X85838273Y-55238005D01*
X86092510Y-55343314D01*
X86362408Y-55397000D01*
X86637592Y-55397000D01*
X86907490Y-55343314D01*
X87161727Y-55238005D01*
X87390535Y-55085120D01*
X87585120Y-54890535D01*
X87738005Y-54661727D01*
X87843314Y-54407490D01*
X87897000Y-54137592D01*
X87897000Y-53862408D01*
X87843314Y-53592510D01*
X87738005Y-53338273D01*
X87585120Y-53109465D01*
X87390535Y-52914880D01*
X87260000Y-52827659D01*
X87260000Y-47172341D01*
X87390535Y-47085120D01*
X87585120Y-46890535D01*
X87738005Y-46661727D01*
X87843314Y-46407490D01*
X87897000Y-46137592D01*
X87897000Y-45862408D01*
X87843314Y-45592510D01*
X87738005Y-45338273D01*
X87585120Y-45109465D01*
X87390535Y-44914880D01*
X87161727Y-44761995D01*
X86907490Y-44656686D01*
X86637592Y-44603000D01*
X86362408Y-44603000D01*
X86092510Y-44656686D01*
X85838273Y-44761995D01*
X85609465Y-44914880D01*
X85414880Y-45109465D01*
X85261995Y-45338273D01*
X85156686Y-45592510D01*
X85103000Y-45862408D01*
X74897000Y-45862408D01*
X74843314Y-45592510D01*
X74738005Y-45338273D01*
X74585120Y-45109465D01*
X74390535Y-44914880D01*
X74161727Y-44761995D01*
X73907490Y-44656686D01*
X73637592Y-44603000D01*
X73362408Y-44603000D01*
X73092510Y-44656686D01*
X72838273Y-44761995D01*
X72609465Y-44914880D01*
X72414880Y-45109465D01*
X72261995Y-45338273D01*
X72156686Y-45592510D01*
X72103000Y-45862408D01*
X69511719Y-45862408D01*
X69633340Y-45528259D01*
X70222573Y-44355000D01*
X70944029Y-43258079D01*
X71697824Y-42359742D01*
X77278715Y-42359742D01*
X77347904Y-42642745D01*
X77470975Y-42906812D01*
X77643198Y-43141795D01*
X77857954Y-43338664D01*
X78106991Y-43489854D01*
X78380739Y-43589554D01*
X78393110Y-43591476D01*
X78623000Y-43470155D01*
X78623000Y-42127000D01*
X77422768Y-42127000D01*
X77278715Y-42359742D01*
X71697824Y-42359742D01*
X71787952Y-42252332D01*
X72436712Y-41640258D01*
X77278715Y-41640258D01*
X77422768Y-41873000D01*
X78623000Y-41873000D01*
X78623000Y-40529845D01*
X78877000Y-40529845D01*
X78877000Y-41873000D01*
X78897000Y-41873000D01*
X78897000Y-42127000D01*
X78877000Y-42127000D01*
X78877000Y-43470155D01*
X79106890Y-43591476D01*
X79119261Y-43589554D01*
X79393009Y-43489854D01*
X79642046Y-43338664D01*
X79856802Y-43141795D01*
X79857086Y-43141407D01*
X79911595Y-43243386D01*
X80022038Y-43377962D01*
X80156614Y-43488405D01*
X80310150Y-43570472D01*
X80476746Y-43621008D01*
X80650000Y-43638072D01*
X81850000Y-43638072D01*
X82023254Y-43621008D01*
X82189850Y-43570472D01*
X82343386Y-43488405D01*
X82477962Y-43377962D01*
X82588405Y-43243386D01*
X82670472Y-43089850D01*
X82721008Y-42923254D01*
X82738072Y-42750000D01*
X82738072Y-41250000D01*
X82721008Y-41076746D01*
X82670472Y-40910150D01*
X82588405Y-40756614D01*
X82477962Y-40622038D01*
X82343386Y-40511595D01*
X82189850Y-40429528D01*
X82023254Y-40378992D01*
X81850000Y-40361928D01*
X80650000Y-40361928D01*
X80476746Y-40378992D01*
X80310150Y-40429528D01*
X80156614Y-40511595D01*
X80022038Y-40622038D01*
X79911595Y-40756614D01*
X79857086Y-40858593D01*
X79856802Y-40858205D01*
X79642046Y-40661336D01*
X79393009Y-40510146D01*
X79119261Y-40410446D01*
X79106890Y-40408524D01*
X78877000Y-40529845D01*
X78623000Y-40529845D01*
X78393110Y-40408524D01*
X78380739Y-40410446D01*
X78106991Y-40510146D01*
X77857954Y-40661336D01*
X77643198Y-40858205D01*
X77470975Y-41093188D01*
X77347904Y-41357255D01*
X77278715Y-41640258D01*
X72436712Y-41640258D01*
X72742928Y-41351358D01*
X73796044Y-40567343D01*
X74933057Y-39910887D01*
X76138593Y-39390870D01*
X77396347Y-39014323D01*
X78689311Y-38786339D01*
X80000000Y-38710000D01*
X81310689Y-38786339D01*
%TA.AperFunction,Conductor*%
D14*
G36*
X81310689Y-38786339D02*
G01*
X82603653Y-39014323D01*
X83861407Y-39390870D01*
X85066943Y-39910887D01*
X86203956Y-40567343D01*
X87257072Y-41351358D01*
X88212048Y-42252332D01*
X89055971Y-43258079D01*
X89777427Y-44355000D01*
X90366660Y-45528259D01*
X90815702Y-46761992D01*
X91118480Y-48039512D01*
X91270899Y-49343545D01*
X91270899Y-50656455D01*
X91118480Y-51960488D01*
X90815702Y-53238008D01*
X90366660Y-54471741D01*
X89777427Y-55645000D01*
X89055971Y-56741921D01*
X88212048Y-57747668D01*
X87257072Y-58648642D01*
X86203956Y-59432657D01*
X85066943Y-60089113D01*
X83861407Y-60609130D01*
X82603653Y-60985677D01*
X81310689Y-61213661D01*
X80000000Y-61290000D01*
X78689311Y-61213661D01*
X77396347Y-60985677D01*
X76138593Y-60609130D01*
X74933057Y-60089113D01*
X73796044Y-59432657D01*
X72742928Y-58648642D01*
X71787952Y-57747668D01*
X70944029Y-56741921D01*
X70222573Y-55645000D01*
X69633340Y-54471741D01*
X69184298Y-53238008D01*
X68881520Y-51960488D01*
X68729101Y-50656455D01*
X68729101Y-49343545D01*
X68881520Y-48039512D01*
X69184298Y-46761992D01*
X69511719Y-45862408D01*
X72103000Y-45862408D01*
X72103000Y-46137592D01*
X72156686Y-46407490D01*
X72261995Y-46661727D01*
X72414880Y-46890535D01*
X72609465Y-47085120D01*
X72740000Y-47172341D01*
X72740001Y-52827659D01*
X72609465Y-52914880D01*
X72414880Y-53109465D01*
X72261995Y-53338273D01*
X72156686Y-53592510D01*
X72103000Y-53862408D01*
X72103000Y-54137592D01*
X72156686Y-54407490D01*
X72261995Y-54661727D01*
X72414880Y-54890535D01*
X72609465Y-55085120D01*
X72838273Y-55238005D01*
X73092510Y-55343314D01*
X73362408Y-55397000D01*
X73637592Y-55397000D01*
X73907490Y-55343314D01*
X74161727Y-55238005D01*
X74390535Y-55085120D01*
X74585120Y-54890535D01*
X74738005Y-54661727D01*
X74843314Y-54407490D01*
X74897000Y-54137592D01*
X74897000Y-53862408D01*
X74843314Y-53592510D01*
X74738005Y-53338273D01*
X74585120Y-53109465D01*
X74390535Y-52914880D01*
X74260000Y-52827659D01*
X74260000Y-47172341D01*
X74390535Y-47085120D01*
X74585120Y-46890535D01*
X74738005Y-46661727D01*
X74843314Y-46407490D01*
X74897000Y-46137592D01*
X74897000Y-45862408D01*
X85103000Y-45862408D01*
X85103000Y-46137592D01*
X85156686Y-46407490D01*
X85261995Y-46661727D01*
X85414880Y-46890535D01*
X85609465Y-47085120D01*
X85740000Y-47172341D01*
X85740001Y-52827659D01*
X85609465Y-52914880D01*
X85414880Y-53109465D01*
X85261995Y-53338273D01*
X85156686Y-53592510D01*
X85103000Y-53862408D01*
X85103000Y-54137592D01*
X85156686Y-54407490D01*
X85261995Y-54661727D01*
X85414880Y-54890535D01*
X85609465Y-55085120D01*
X85838273Y-55238005D01*
X86092510Y-55343314D01*
X86362408Y-55397000D01*
X86637592Y-55397000D01*
X86907490Y-55343314D01*
X87161727Y-55238005D01*
X87390535Y-55085120D01*
X87585120Y-54890535D01*
X87738005Y-54661727D01*
X87843314Y-54407490D01*
X87897000Y-54137592D01*
X87897000Y-53862408D01*
X87843314Y-53592510D01*
X87738005Y-53338273D01*
X87585120Y-53109465D01*
X87390535Y-52914880D01*
X87260000Y-52827659D01*
X87260000Y-47172341D01*
X87390535Y-47085120D01*
X87585120Y-46890535D01*
X87738005Y-46661727D01*
X87843314Y-46407490D01*
X87897000Y-46137592D01*
X87897000Y-45862408D01*
X87843314Y-45592510D01*
X87738005Y-45338273D01*
X87585120Y-45109465D01*
X87390535Y-44914880D01*
X87161727Y-44761995D01*
X86907490Y-44656686D01*
X86637592Y-44603000D01*
X86362408Y-44603000D01*
X86092510Y-44656686D01*
X85838273Y-44761995D01*
X85609465Y-44914880D01*
X85414880Y-45109465D01*
X85261995Y-45338273D01*
X85156686Y-45592510D01*
X85103000Y-45862408D01*
X74897000Y-45862408D01*
X74843314Y-45592510D01*
X74738005Y-45338273D01*
X74585120Y-45109465D01*
X74390535Y-44914880D01*
X74161727Y-44761995D01*
X73907490Y-44656686D01*
X73637592Y-44603000D01*
X73362408Y-44603000D01*
X73092510Y-44656686D01*
X72838273Y-44761995D01*
X72609465Y-44914880D01*
X72414880Y-45109465D01*
X72261995Y-45338273D01*
X72156686Y-45592510D01*
X72103000Y-45862408D01*
X69511719Y-45862408D01*
X69633340Y-45528259D01*
X70222573Y-44355000D01*
X70944029Y-43258079D01*
X71697824Y-42359742D01*
X77278715Y-42359742D01*
X77347904Y-42642745D01*
X77470975Y-42906812D01*
X77643198Y-43141795D01*
X77857954Y-43338664D01*
X78106991Y-43489854D01*
X78380739Y-43589554D01*
X78393110Y-43591476D01*
X78623000Y-43470155D01*
X78623000Y-42127000D01*
X77422768Y-42127000D01*
X77278715Y-42359742D01*
X71697824Y-42359742D01*
X71787952Y-42252332D01*
X72436712Y-41640258D01*
X77278715Y-41640258D01*
X77422768Y-41873000D01*
X78623000Y-41873000D01*
X78623000Y-40529845D01*
X78877000Y-40529845D01*
X78877000Y-41873000D01*
X78897000Y-41873000D01*
X78897000Y-42127000D01*
X78877000Y-42127000D01*
X78877000Y-43470155D01*
X79106890Y-43591476D01*
X79119261Y-43589554D01*
X79393009Y-43489854D01*
X79642046Y-43338664D01*
X79856802Y-43141795D01*
X79857086Y-43141407D01*
X79911595Y-43243386D01*
X80022038Y-43377962D01*
X80156614Y-43488405D01*
X80310150Y-43570472D01*
X80476746Y-43621008D01*
X80650000Y-43638072D01*
X81850000Y-43638072D01*
X82023254Y-43621008D01*
X82189850Y-43570472D01*
X82343386Y-43488405D01*
X82477962Y-43377962D01*
X82588405Y-43243386D01*
X82670472Y-43089850D01*
X82721008Y-42923254D01*
X82738072Y-42750000D01*
X82738072Y-41250000D01*
X82721008Y-41076746D01*
X82670472Y-40910150D01*
X82588405Y-40756614D01*
X82477962Y-40622038D01*
X82343386Y-40511595D01*
X82189850Y-40429528D01*
X82023254Y-40378992D01*
X81850000Y-40361928D01*
X80650000Y-40361928D01*
X80476746Y-40378992D01*
X80310150Y-40429528D01*
X80156614Y-40511595D01*
X80022038Y-40622038D01*
X79911595Y-40756614D01*
X79857086Y-40858593D01*
X79856802Y-40858205D01*
X79642046Y-40661336D01*
X79393009Y-40510146D01*
X79119261Y-40410446D01*
X79106890Y-40408524D01*
X78877000Y-40529845D01*
X78623000Y-40529845D01*
X78393110Y-40408524D01*
X78380739Y-40410446D01*
X78106991Y-40510146D01*
X77857954Y-40661336D01*
X77643198Y-40858205D01*
X77470975Y-41093188D01*
X77347904Y-41357255D01*
X77278715Y-41640258D01*
X72436712Y-41640258D01*
X72742928Y-41351358D01*
X73796044Y-40567343D01*
X74933057Y-39910887D01*
X76138593Y-39390870D01*
X77396347Y-39014323D01*
X78689311Y-38786339D01*
X80000000Y-38710000D01*
X81310689Y-38786339D01*
G37*
%TD.AperFunction*%
%TD*%
M02*
