<!DOCTYPE svg PUBLIC "-//W3C//DTD SVG 1.1//EN" "http://www.w3.org/Graphics/SVG/1.1/DTD/svg11.dtd">
<svg xmlns="http://www.w3.org/2000/svg" version="1.1" width="26.0mm" height="26.0mm" viewBox="-9300000.0 3700000.0 2600000.0 2600000.0">
            <title>Picture generated by PcbDraw </title>
            <desc>Picture generated by PcbDraw</desc>
        <defs><clipPath id="cut-off"><path d=" M 8000000.000000 5000000.000000 m-1200000.000000 0 a 1200000.000000 1200000.000000 0 1 0 2400000.0 0 a 1200000.000000 1200000.000000 0 1 0 -2400000.0 0 " style="fill-rule: evenodd;"/></clipPath><mask id="pads-mask"><g style="fill:#ffffff; fill-opacity:0.0;  stroke:#ffffff; stroke-width:0.000000; stroke-opacity:1;  stroke-linecap:round; stroke-linejoin:round;">
<g style="fill:#ffffff; fill-opacity:1.0;  stroke:#ffffff; stroke-width:0.100000; stroke-opacity:1;  stroke-linecap:round; stroke-linejoin:round;">
<circle cx="8950000.000000" cy="5400000.000000" r="76200.000000"/> 
</g>
<g style="fill:#ffffff; fill-opacity:1.0;  stroke:#ffffff; stroke-width:0.100000; stroke-opacity:1;  stroke-linecap:round; stroke-linejoin:round;">
<circle cx="7050000.000000" cy="5400000.000000" r="76200.000000"/> 
</g>
<g style="fill:#ffffff; fill-opacity:1.0;  stroke:#ffffff; stroke-width:0.100000; stroke-opacity:1;  stroke-linecap:round; stroke-linejoin:round;">
<circle cx="8950000.000000" cy="4600000.000000" r="76200.000000"/> 
</g>
<g style="fill:#ffffff; fill-opacity:1.0;  stroke:#ffffff; stroke-width:0.100000; stroke-opacity:1;  stroke-linecap:round; stroke-linejoin:round;">
<circle cx="7050000.000000" cy="4600000.000000" r="76200.000000"/> 
</g>
<g style="fill:#ffffff; fill-opacity:1.0;  stroke:#ffffff; stroke-width:0.100000; stroke-opacity:1;  stroke-linecap:round; stroke-linejoin:round;">
<path style="fill:#ffffff; fill-opacity:1.0;  stroke:#ffffff; stroke-width:0.100000; stroke-opacity:1;  stroke-linecap:round; stroke-linejoin:round;fill-rule:evenodd;" d="M 8080000.000000,5167500.000000 8074259.700000,5166358.200000 8069393.400000,5163106.600000 8066141.800000,5158240.300000 8065000.000000,5152500.000000 8065000.000000,5035000.000000 8066141.800000,5029259.700000 8069393.400000,5024393.400000 8074259.700000,5021141.800000 8080000.000000,5020000.000000 8110000.000000,5020000.000000 8115740.300000,5021141.800000 8120606.600000,5024393.400000 8123858.200000,5029259.700000 8125000.000000,5035000.000000 8125000.000000,5152500.000000 8123858.200000,5158240.300000 8120606.600000,5163106.600000 8115740.300000,5166358.200000 8110000.000000,5167500.000000 Z"/> 
<path style="fill:#ffffff; fill-opacity:1.0;  stroke:#ffffff; stroke-width:0.100000; stroke-opacity:1;  stroke-linecap:round; stroke-linejoin:round;fill-rule:evenodd;" d="M 7890000.000000,5167500.000000 7884259.700000,5166358.200000 7879393.400000,5163106.600000 7876141.800000,5158240.300000 7875000.000000,5152500.000000 7875000.000000,5035000.000000 7876141.800000,5029259.700000 7879393.400000,5024393.400000 7884259.700000,5021141.800000 7890000.000000,5020000.000000 7920000.000000,5020000.000000 7925740.300000,5021141.800000 7930606.600000,5024393.400000 7933858.200000,5029259.700000 7935000.000000,5035000.000000 7935000.000000,5152500.000000 7933858.200000,5158240.300000 7930606.600000,5163106.600000 7925740.300000,5166358.200000 7920000.000000,5167500.000000 Z"/> 
<path style="fill:#ffffff; fill-opacity:1.0;  stroke:#ffffff; stroke-width:0.100000; stroke-opacity:1;  stroke-linecap:round; stroke-linejoin:round;fill-rule:evenodd;" d="M 7985000.000000,4980000.000000 7979259.700000,4978858.200000 7974393.400000,4975606.600000 7971141.800000,4970740.300000 7970000.000000,4965000.000000 7970000.000000,4847500.000000 7971141.800000,4841759.700000 7974393.400000,4836893.400000 7979259.700000,4833641.800000 7985000.000000,4832500.000000 8015000.000000,4832500.000000 8020740.300000,4833641.800000 8025606.600000,4836893.400000 8028858.200000,4841759.700000 8030000.000000,4847500.000000 8030000.000000,4965000.000000 8028858.200000,4970740.300000 8025606.600000,4975606.600000 8020740.300000,4978858.200000 8015000.000000,4980000.000000 Z"/> 
</g>
</g> 
</mask><mask id="pads-mask-silkscreen"><rect x="6700000.0" y="3293250.0" width="2600000.0" height="3006750.0" fill="white"/><g style="fill:#000000; fill-opacity:0.0;  stroke:#000000; stroke-width:0.000000; stroke-opacity:1;  stroke-linecap:round; stroke-linejoin:round;">
<g style="fill:#000000; fill-opacity:1.0;  stroke:#000000; stroke-width:0.100000; stroke-opacity:1;  stroke-linecap:round; stroke-linejoin:round;">
<circle cx="8950000.000000" cy="5400000.000000" r="76200.000000"/> 
</g>
<g style="fill:#000000; fill-opacity:1.0;  stroke:#000000; stroke-width:0.100000; stroke-opacity:1;  stroke-linecap:round; stroke-linejoin:round;">
<circle cx="7050000.000000" cy="5400000.000000" r="76200.000000"/> 
</g>
<g style="fill:#000000; fill-opacity:1.0;  stroke:#000000; stroke-width:0.100000; stroke-opacity:1;  stroke-linecap:round; stroke-linejoin:round;">
<circle cx="8950000.000000" cy="4600000.000000" r="76200.000000"/> 
</g>
<g style="fill:#000000; fill-opacity:1.0;  stroke:#000000; stroke-width:0.100000; stroke-opacity:1;  stroke-linecap:round; stroke-linejoin:round;">
<circle cx="7050000.000000" cy="4600000.000000" r="76200.000000"/> 
</g>
<g style="fill:#000000; fill-opacity:1.0;  stroke:#000000; stroke-width:0.100000; stroke-opacity:1;  stroke-linecap:round; stroke-linejoin:round;">
<path style="fill:#000000; fill-opacity:1.0;  stroke:#000000; stroke-width:0.100000; stroke-opacity:1;  stroke-linecap:round; stroke-linejoin:round;fill-rule:evenodd;" d="M 8080000.000000,5167500.000000 8074259.700000,5166358.200000 8069393.400000,5163106.600000 8066141.800000,5158240.300000 8065000.000000,5152500.000000 8065000.000000,5035000.000000 8066141.800000,5029259.700000 8069393.400000,5024393.400000 8074259.700000,5021141.800000 8080000.000000,5020000.000000 8110000.000000,5020000.000000 8115740.300000,5021141.800000 8120606.600000,5024393.400000 8123858.200000,5029259.700000 8125000.000000,5035000.000000 8125000.000000,5152500.000000 8123858.200000,5158240.300000 8120606.600000,5163106.600000 8115740.300000,5166358.200000 8110000.000000,5167500.000000 Z"/> 
<path style="fill:#000000; fill-opacity:1.0;  stroke:#000000; stroke-width:0.100000; stroke-opacity:1;  stroke-linecap:round; stroke-linejoin:round;fill-rule:evenodd;" d="M 7890000.000000,5167500.000000 7884259.700000,5166358.200000 7879393.400000,5163106.600000 7876141.800000,5158240.300000 7875000.000000,5152500.000000 7875000.000000,5035000.000000 7876141.800000,5029259.700000 7879393.400000,5024393.400000 7884259.700000,5021141.800000 7890000.000000,5020000.000000 7920000.000000,5020000.000000 7925740.300000,5021141.800000 7930606.600000,5024393.400000 7933858.200000,5029259.700000 7935000.000000,5035000.000000 7935000.000000,5152500.000000 7933858.200000,5158240.300000 7930606.600000,5163106.600000 7925740.300000,5166358.200000 7920000.000000,5167500.000000 Z"/> 
<path style="fill:#000000; fill-opacity:1.0;  stroke:#000000; stroke-width:0.100000; stroke-opacity:1;  stroke-linecap:round; stroke-linejoin:round;fill-rule:evenodd;" d="M 7985000.000000,4980000.000000 7979259.700000,4978858.200000 7974393.400000,4975606.600000 7971141.800000,4970740.300000 7970000.000000,4965000.000000 7970000.000000,4847500.000000 7971141.800000,4841759.700000 7974393.400000,4836893.400000 7979259.700000,4833641.800000 7985000.000000,4832500.000000 8015000.000000,4832500.000000 8020740.300000,4833641.800000 8025606.600000,4836893.400000 8028858.200000,4841759.700000 8030000.000000,4847500.000000 8030000.000000,4965000.000000 8028858.200000,4970740.300000 8025606.600000,4975606.600000 8020740.300000,4978858.200000 8015000.000000,4980000.000000 Z"/> 
</g>
</g> 
</mask><mask id="hole-mask"><g><rect x="6700000.0" y="3293250.0" fill="white" width="2600000.0" height="3006750.0"/><polyline stroke-linecap="round" stroke="black" stroke-width="76200.0" points="-0.0 0 0.0 0" transform="translate(8950000.0 5400000.0) rotate(-0.0)"/><polyline stroke-linecap="round" stroke="black" stroke-width="76200.0" points="-0.0 0 0.0 0" transform="translate(7050000.0 5400000.0) rotate(-0.0)"/><polyline stroke-linecap="round" stroke="black" stroke-width="76200.0" points="-0.0 0 0.0 0" transform="translate(8950000.0 4600000.0) rotate(-0.0)"/><polyline stroke-linecap="round" stroke="black" stroke-width="76200.0" points="-0.0 0 0.0 0" transform="translate(7050000.0 4600000.0) rotate(-0.0)"/><polyline stroke-linecap="round" stroke="black" stroke-width="40000.0" points="-0.0 0 0.0 0" transform="translate(8300000.0 4600000.0) rotate(0.0)"/><polyline stroke-linecap="round" stroke="black" stroke-width="40000.0" points="-0.0 0 0.0 0" transform="translate(7700000.0 4600000.0) rotate(0.0)"/></g></mask></defs><g transform="scale(-1,1)" id="boardContainer"><g id="substrate" clip-path="url(#cut-off)" mask="url(#hole-mask)"><g id="substrate-board" style="fill:#4ca06c; stroke:#4ca06c;"><path d=" M 8000000.000000 5000000.000000 m-1200000.000000 0 a 1200000.000000 1200000.000000 0 1 0 2400000.0 0 a 1200000.000000 1200000.000000 0 1 0 -2400000.0 0 " style="fill-rule: evenodd;"/><g style="fill-opacity: 0.0;stroke-width: 15000.000000;stroke-opacity: 1;stroke-linecap: round;stroke-linejoin: round">
<circle cx="8000000.000000" cy="5000000.000000" r="1200000.000000"/> 
</g> 
</g><g id="substrate-clad" style="fill:#9c6b28; stroke:#9c6b28;"><g style="fill-opacity: 0.0;stroke-width: 0.000000;stroke-opacity: 1;stroke-linecap: round;stroke-linejoin: round">
<g style="fill-opacity: 1.0;stroke-width: 0.100000;stroke-opacity: 1;stroke-linecap: round;stroke-linejoin: round">
<circle cx="8950000.000000" cy="5400000.000000" r="76200.000000"/> 
</g>
<g style="fill-opacity: 1.0;stroke-width: 0.100000;stroke-opacity: 1;stroke-linecap: round;stroke-linejoin: round">
<circle cx="7050000.000000" cy="5400000.000000" r="76200.000000"/> 
</g>
<g style="fill-opacity: 1.0;stroke-width: 0.100000;stroke-opacity: 1;stroke-linecap: round;stroke-linejoin: round">
<circle cx="8950000.000000" cy="4600000.000000" r="76200.000000"/> 
</g>
<g style="fill-opacity: 1.0;stroke-width: 0.100000;stroke-opacity: 1;stroke-linecap: round;stroke-linejoin: round">
<circle cx="7050000.000000" cy="4600000.000000" r="76200.000000"/> 
</g>
<g style="fill-opacity: 1.0;stroke-width: 0.100000;stroke-opacity: 1;stroke-linecap: round;stroke-linejoin: round">
<path style="fill-opacity: 1.0;stroke-width: 0.100000;stroke-opacity: 1;stroke-linecap: round;stroke-linejoin: round;fill-rule: evenodd" d="M 8080000.000000,5167500.000000 8074259.700000,5166358.200000 8069393.400000,5163106.600000 8066141.800000,5158240.300000 8065000.000000,5152500.000000 8065000.000000,5035000.000000 8066141.800000,5029259.700000 8069393.400000,5024393.400000 8074259.700000,5021141.800000 8080000.000000,5020000.000000 8110000.000000,5020000.000000 8115740.300000,5021141.800000 8120606.600000,5024393.400000 8123858.200000,5029259.700000 8125000.000000,5035000.000000 8125000.000000,5152500.000000 8123858.200000,5158240.300000 8120606.600000,5163106.600000 8115740.300000,5166358.200000 8110000.000000,5167500.000000 Z"/> 
<path style="fill-opacity: 1.0;stroke-width: 0.100000;stroke-opacity: 1;stroke-linecap: round;stroke-linejoin: round;fill-rule: evenodd" d="M 7890000.000000,5167500.000000 7884259.700000,5166358.200000 7879393.400000,5163106.600000 7876141.800000,5158240.300000 7875000.000000,5152500.000000 7875000.000000,5035000.000000 7876141.800000,5029259.700000 7879393.400000,5024393.400000 7884259.700000,5021141.800000 7890000.000000,5020000.000000 7920000.000000,5020000.000000 7925740.300000,5021141.800000 7930606.600000,5024393.400000 7933858.200000,5029259.700000 7935000.000000,5035000.000000 7935000.000000,5152500.000000 7933858.200000,5158240.300000 7930606.600000,5163106.600000 7925740.300000,5166358.200000 7920000.000000,5167500.000000 Z"/> 
<path style="fill-opacity: 1.0;stroke-width: 0.100000;stroke-opacity: 1;stroke-linecap: round;stroke-linejoin: round;fill-rule: evenodd" d="M 7985000.000000,4980000.000000 7979259.700000,4978858.200000 7974393.400000,4975606.600000 7971141.800000,4970740.300000 7970000.000000,4965000.000000 7970000.000000,4847500.000000 7971141.800000,4841759.700000 7974393.400000,4836893.400000 7979259.700000,4833641.800000 7985000.000000,4832500.000000 8015000.000000,4832500.000000 8020740.300000,4833641.800000 8025606.600000,4836893.400000 8028858.200000,4841759.700000 8030000.000000,4847500.000000 8030000.000000,4965000.000000 8028858.200000,4970740.300000 8025606.600000,4975606.600000 8020740.300000,4978858.200000 8015000.000000,4980000.000000 Z"/> 
</g>
</g> 
</g><g id="substrate-copper" style="fill:#417e5a; stroke:#417e5a;"><g style="fill-opacity: 0.0;stroke-width: 0.000000;stroke-opacity: 1;stroke-linecap: round;stroke-linejoin: round">
<g style="fill-opacity: 1.0;stroke-width: 0.100000;stroke-opacity: 1;stroke-linecap: round;stroke-linejoin: round">
<circle cx="8950000.000000" cy="5400000.000000" r="76200.000000"/> 
</g>
<g style="fill-opacity: 1.0;stroke-width: 0.100000;stroke-opacity: 1;stroke-linecap: round;stroke-linejoin: round">
<circle cx="7050000.000000" cy="5400000.000000" r="76200.000000"/> 
</g>
<g style="fill-opacity: 1.0;stroke-width: 0.100000;stroke-opacity: 1;stroke-linecap: round;stroke-linejoin: round">
<circle cx="8950000.000000" cy="4600000.000000" r="76200.000000"/> 
</g>
<g style="fill-opacity: 1.0;stroke-width: 0.100000;stroke-opacity: 1;stroke-linecap: round;stroke-linejoin: round">
<circle cx="7050000.000000" cy="4600000.000000" r="76200.000000"/> 
</g>
<g style="fill-opacity: 1.0;stroke-width: 0.100000;stroke-opacity: 1;stroke-linecap: round;stroke-linejoin: round">
<path style="fill-opacity: 1.0;stroke-width: 0.100000;stroke-opacity: 1;stroke-linecap: round;stroke-linejoin: round;fill-rule: evenodd" d="M 8080000.000000,5167500.000000 8074259.700000,5166358.200000 8069393.400000,5163106.600000 8066141.800000,5158240.300000 8065000.000000,5152500.000000 8065000.000000,5035000.000000 8066141.800000,5029259.700000 8069393.400000,5024393.400000 8074259.700000,5021141.800000 8080000.000000,5020000.000000 8110000.000000,5020000.000000 8115740.300000,5021141.800000 8120606.600000,5024393.400000 8123858.200000,5029259.700000 8125000.000000,5035000.000000 8125000.000000,5152500.000000 8123858.200000,5158240.300000 8120606.600000,5163106.600000 8115740.300000,5166358.200000 8110000.000000,5167500.000000 Z"/> 
<path style="fill-opacity: 1.0;stroke-width: 0.100000;stroke-opacity: 1;stroke-linecap: round;stroke-linejoin: round;fill-rule: evenodd" d="M 7890000.000000,5167500.000000 7884259.700000,5166358.200000 7879393.400000,5163106.600000 7876141.800000,5158240.300000 7875000.000000,5152500.000000 7875000.000000,5035000.000000 7876141.800000,5029259.700000 7879393.400000,5024393.400000 7884259.700000,5021141.800000 7890000.000000,5020000.000000 7920000.000000,5020000.000000 7925740.300000,5021141.800000 7930606.600000,5024393.400000 7933858.200000,5029259.700000 7935000.000000,5035000.000000 7935000.000000,5152500.000000 7933858.200000,5158240.300000 7930606.600000,5163106.600000 7925740.300000,5166358.200000 7920000.000000,5167500.000000 Z"/> 
<path style="fill-opacity: 1.0;stroke-width: 0.100000;stroke-opacity: 1;stroke-linecap: round;stroke-linejoin: round;fill-rule: evenodd" d="M 7985000.000000,4980000.000000 7979259.700000,4978858.200000 7974393.400000,4975606.600000 7971141.800000,4970740.300000 7970000.000000,4965000.000000 7970000.000000,4847500.000000 7971141.800000,4841759.700000 7974393.400000,4836893.400000 7979259.700000,4833641.800000 7985000.000000,4832500.000000 8015000.000000,4832500.000000 8020740.300000,4833641.800000 8025606.600000,4836893.400000 8028858.200000,4841759.700000 8030000.000000,4847500.000000 8030000.000000,4965000.000000 8028858.200000,4970740.300000 8025606.600000,4975606.600000 8020740.300000,4978858.200000 8015000.000000,4980000.000000 Z"/> 
</g>
<g style="fill-opacity: 1.0;stroke-width: 0.100000;stroke-opacity: 1;stroke-linecap: round;stroke-linejoin: round">
<circle cx="8300000.000000" cy="4600000.000000" r="40000.000000"/> 
</g>
<g style="fill-opacity: 1.0;stroke-width: 0.100000;stroke-opacity: 1;stroke-linecap: round;stroke-linejoin: round">
<circle cx="7700000.000000" cy="4600000.000000" r="40000.000000"/> 
</g>
<g style="fill-opacity: 0.0;stroke-width: 25000.000000;stroke-opacity: 1;stroke-linecap: round;stroke-linejoin: round">
<path d="M7050000 4600000 L7050000 5400000 "/>
<path d="M8095000 5195000 L8300000 5400000 "/>
<path d="M8950000 4600000 L8950000 5400000 "/>
<path d="M8095000 5093750 L8095000 5195000 "/>
<path d="M8300000 5400000 L8950000 5400000 "/>
<path d="M8000000 4800000 L8000000 4906250 "/>
<path d="M7800000 4600000 L8000000 4800000 "/>
<path d="M7700000 4600000 L7800000 4600000 "/>
</g>
<g style="fill-opacity: 0.0;stroke-width: 25000.000000;stroke-opacity: 1;stroke-linecap: round;stroke-linejoin: round">
<g style="fill-opacity: 1.0;stroke-width: 0.100000;stroke-opacity: 1;stroke-linecap: round;stroke-linejoin: round">
<path style="fill-opacity: 1.0;stroke-width: 0.100000;stroke-opacity: 1;stroke-linecap: round;stroke-linejoin: round;fill-rule: evenodd" d="M 8018412.700000,3851008.000000 8062558.300000,3852974.000000 8083799.400000,3853920.000000 8084521.200000,3853972.900000 8109246.400000,3856506.200000 8149632.700000,3860644.100000 8150352.100000,3860738.800000 8214971.500000,3871147.000000 8215684.300000,3871283.000000 8243008.900000,3877315.700000 8279596.500000,3885393.500000 8280300.200000,3885570.300000 8343293.100000,3903336.100000 8343982.300000,3903552.000000 8405856.300000,3924917.300000 8406528.800000,3925171.500000 8451002.500000,3943456.800000 8467066.500000,3950061.500000 8467729.300000,3950356.700000 8526730.700000,3978688.800000 8527373.800000,3979020.700000 8584648.200000,4010703.100000 8585270.200000,4011071.000000 8640625.500000,4045997.500000 8641227.800000,4046402.200000 8694479.500000,4084456.400000 8695057.500000,4084895.100000 8746031.600000,4125952.700000 8746583.300000,4126424.000000 8795107.100000,4170345.600000 8795630.800000,4170847.800000 8815905.800000,4191443.700000 8841547.100000,4217491.000000 8842040.200000,4218021.600000 8885196.200000,4267231.700000 8885658.700000,4267790.700000 8925909.100000,4319401.600000 8926338.200000,4319985.700000 8943049.200000,4344164.500000 8963552.200000,4373829.900000 8963947.400000,4374438.500000 8997998.800000,4430333.300000 8998358.300000,4430963.500000 9012214.500000,4456968.300000 9017067.900000,4466077.100000 9018505.900000,4473029.600000 9015956.900000,4479655.900000 9010230.100000,4483852.200000 9003143.700000,4484286.200000 9000622.900000,4483421.700000 8994117.800000,4480388.300000 8994117.700000,4480388.200000 8993619.600000,4480156.000000 8993088.800000,4480013.800000 8993088.600000,4480013.700000 8986505.100000,4478249.700000 8972146.300000,4474402.200000 8950000.000000,4472464.700000 8927853.700000,4474402.200000 8913494.900000,4478249.700000 8906911.400000,4480013.700000 8906911.200000,4480013.800000 8906380.400000,4480156.000000 8905882.300000,4480388.200000 8905882.200000,4480388.300000 8886731.100000,4489318.600000 8886730.600000,4489318.900000 8886232.400000,4489551.200000 8885781.700000,4489866.800000 8885781.500000,4489866.900000 8868473.000000,4501986.400000 8868472.700000,4501986.600000 8868021.900000,4502302.300000 8852302.300000,4518021.900000 8851986.600000,4518472.700000 8851986.400000,4518473.000000 8841782.300000,4533046.000000 8839551.200000,4536232.400000 8839318.900000,4536730.600000 8839318.600000,4536731.100000 8833651.600000,4548884.100000 8830156.000000,4556380.400000 8824402.200000,4577853.700000 8822464.700000,4600000.000000 8824402.200000,4622146.300000 8824544.600000,4622677.600000 8829022.400000,4639388.800000 8830156.000000,4643619.600000 8830388.200000,4644117.700000 8830388.300000,4644117.800000 8839318.600000,4663268.900000 8839318.900000,4663269.400000 8839551.200000,4663767.600000 8839866.800000,4664218.300000 8839866.900000,4664218.500000 8846452.600000,4673623.800000 8852302.300000,4681978.100000 8868021.900000,4697697.700000 8868472.700000,4698013.400000 8868473.000000,4698013.600000 8881277.100000,4706979.100000 8885709.900000,4712524.800000 8886650.000000,4717300.400000 8886650.000000,5282699.600000 8884649.800000,5289511.700000 8881277.100000,5293020.900000 8868473.000000,5301986.400000 8868472.700000,5301986.600000 8868021.900000,5302302.300000 8852302.300000,5318021.900000 8851986.600000,5318472.700000 8851986.400000,5318473.000000 8843020.900000,5331277.100000 8837475.200000,5335709.900000 8832699.600000,5336650.000000 8331459.400000,5336650.000000 8324647.300000,5334649.800000 8322549.900000,5332959.500000 8175628.900000,5186038.400000 8172226.300000,5179807.200000 8172438.700000,5173613.600000 8175376.800000,5163500.800000 8175376.900000,5163500.300000 8175556.200000,5162883.100000 8175607.400000,5162233.600000 8175830.700000,5159395.800000 8175830.700000,5159395.000000 8175850.000000,5159150.200000 8175850.000000,5028349.800000 8175830.700000,5028104.200000 8175606.700000,5025257.900000 8175606.600000,5025257.400000 8175556.200000,5024616.900000 8172652.800000,5014623.100000 8171135.700000,5009401.200000 8171135.600000,5009401.000000 8170914.500000,5008639.900000 8165687.500000,4999801.500000 8162849.100000,4995002.000000 8162848.900000,4995001.700000 8162445.300000,4994319.300000 8150680.700000,4982554.700000 8149998.300000,4982151.100000 8149998.000000,4982150.900000 8137042.700000,4974489.200000 8137042.800000,4974489.200000 8136360.100000,4974085.500000 8135599.000000,4973864.400000 8135598.800000,4973864.300000 8128823.000000,4971895.800000 8120383.100000,4969443.800000 8119742.600000,4969393.400000 8119742.100000,4969393.300000 8116895.800000,4969169.300000 8116895.000000,4969169.300000 8116650.200000,4969150.000000 8093450.000000,4969150.000000 8086637.900000,4967149.800000 8081988.600000,4961784.200000 8080850.000000,4956550.000000 8080850.000000,4840849.800000 8080556.200000,4837116.900000 8075914.500000,4821139.900000 8069377.900000,4810087.100000 8067849.100000,4807502.000000 8067848.900000,4807501.700000 8067445.300000,4806819.300000 8066884.500000,4806258.500000 8066398.900000,4805632.500000 8066549.600000,4805515.600000 8063637.900000,4800183.300000 8063350.000000,4797505.000000 8063350.000000,4796014.400000 8063299.500000,4795614.400000 8063206.200000,4794430.100000 8063092.200000,4790802.900000 8063067.300000,4790011.000000 8062502.200000,4788065.800000 8062101.400000,4786130.600000 8061946.700000,4784906.300000 8061847.400000,4784120.300000 8061555.600000,4783383.200000 8060220.000000,4780009.700000 8059835.500000,4778887.000000 8059772.100000,4778668.700000 8058601.800000,4774640.700000 8057570.700000,4772897.200000 8056701.200000,4771122.400000 8055955.200000,4769238.300000 8053356.400000,4765661.300000 8052704.800000,4764669.300000 8050858.000000,4761546.500000 8050857.800000,4761546.200000 8050454.200000,4760863.800000 8049022.100000,4759431.700000 8047738.000000,4757928.300000 8047013.100000,4756930.600000 8046547.200000,4756289.300000 8043139.500000,4753470.200000 8042261.600000,4752671.200000 7850365.200000,4560774.700000 7849611.200000,4559946.100000 7849200.000000,4559298.200000 7844234.800000,4554635.600000 7843950.700000,4554360.200000 7841977.000000,4552386.500000 7841657.300000,4552138.500000 7840755.100000,4551368.000000 7838110.000000,4548884.100000 7837532.100000,4548341.400000 7836837.500000,4547959.500000 7836837.200000,4547959.300000 7835756.600000,4547365.200000 7834104.700000,4546280.100000 7833504.800000,4545814.800000 7832504.100000,4545038.600000 7831777.200000,4544724.100000 7831776.800000,4544723.800000 7828446.300000,4543282.600000 7827381.300000,4542760.900000 7823506.000000,4540630.500000 7821543.700000,4540126.700000 7819673.400000,4539486.300000 7818542.000000,4538996.700000 7818541.900000,4538996.700000 7817814.500000,4538681.900000 7817032.200000,4538558.000000 7817031.200000,4538557.700000 7813447.600000,4537990.100000 7812285.600000,4537749.500000 7808771.100000,4536847.200000 7808771.000000,4536847.200000 7808003.000000,4536650.000000 7805977.600000,4536650.000000 7804006.500000,4536494.900000 7802788.600000,4536302.000000 7802005.700000,4536178.000000 7801216.500000,4536252.600000 7797603.900000,4536594.100000 7796418.100000,4536650.000000 7770820.000000,4536650.000000 7764007.900000,4534649.800000 7762085.300000,4533015.700000 7762058.000000,4533046.000000 7761566.800000,4532603.700000 7761125.300000,4532113.400000 7745675.200000,4520888.200000 7745072.400000,4520619.800000 7745072.200000,4520619.700000 7728831.900000,4513389.100000 7728831.800000,4513389.100000 7728228.800000,4513120.600000 7718888.700000,4511135.300000 7710194.400000,4509287.200000 7710193.900000,4509287.200000 7709548.700000,4509150.000000 7690451.300000,4509150.000000 7689806.100000,4509287.200000 7689805.600000,4509287.200000 7681111.300000,4511135.300000 7671771.200000,4513120.600000 7671168.200000,4513389.100000 7671168.100000,4513389.100000 7654927.800000,4520619.700000 7654927.600000,4520619.800000 7654324.800000,4520888.200000 7638874.700000,4532113.400000 7638432.600000,4532604.400000 7638432.500000,4532604.500000 7627520.300000,4544723.800000 7626096.000000,4546305.600000 7616547.300000,4562844.400000 7610645.800000,4581007.200000 7608649.600000,4600000.000000 7610645.800000,4618992.800000 7616547.300000,4637155.600000 7626096.000000,4653694.400000 7638874.700000,4667886.600000 7654324.800000,4679111.800000 7654927.600000,4679380.200000 7654927.800000,4679380.300000 7660762.600000,4681978.100000 7671771.200000,4686879.400000 7681111.200000,4688864.700000 7689805.600000,4690712.800000 7689806.100000,4690712.800000 7690451.300000,4690850.000000 7709548.700000,4690850.000000 7710193.900000,4690712.800000 7710194.400000,4690712.800000 7718888.700000,4688864.700000 7728228.800000,4686879.400000 7739237.400000,4681978.100000 7745072.200000,4679380.300000 7745072.400000,4679380.200000 7745675.200000,4679111.800000 7752745.700000,4673974.800000 7758967.100000,4669454.600000 7761125.300000,4667886.600000 7761339.900000,4667648.300000 7767627.400000,4664631.200000 7774672.700000,4665507.800000 7778566.700000,4668157.100000 7920496.700000,4810087.100000 7923899.300000,4816318.300000 7923686.900000,4822511.900000 7919443.800000,4837116.900000 7919150.000000,4840849.800000 7919150.000000,4971650.200000 7919169.300000,4971895.000000 7919169.300000,4971895.800000 7919377.100000,4974535.200000 7919443.800000,4975383.100000 7924085.500000,4991360.100000 7924489.200000,4992042.700000 7928645.300000,4999070.300000 7930400.000000,5005484.200000 7930400.000000,5066538.500000 7930847.500000,5068062.400000 7930986.500000,5068182.900000 7931754.800000,5068350.000000 7983988.400000,5068350.000000 7985512.300000,5067902.500000 7985632.800000,5067763.500000 7985799.900000,5066995.200000 7985799.900000,5043450.000000 7987800.100000,5036637.900000 7993165.700000,5031988.600000 7998399.900000,5030850.000000 8001550.000000,5030850.000000 8008362.100000,5032850.200000 8013011.400000,5038215.800000 8014150.000000,5043450.000000 8014150.000000,5159150.200000 8014169.300000,5159395.000000 8014169.300000,5159395.800000 8014392.700000,5162233.600000 8014443.800000,5162883.100000 8014623.300000,5163500.800000 8018858.600000,5178079.000000 8019085.500000,5178860.100000 8019489.200000,5179542.700000 8027150.900000,5192498.000000 8027151.100000,5192498.300000 8027554.700000,5193180.700000 8028164.000000,5193790.000000 8028189.800000,5193837.300000 8028601.100000,5194367.500000 8028515.600000,5194433.800000 8031566.600000,5200021.200000 8031848.300000,5202303.500000 8031932.700000,5204988.900000 8032497.800000,5206933.900000 8032898.700000,5208870.000000 8033152.600000,5210879.700000 8033444.500000,5211616.800000 8033444.500000,5211617.000000 8034780.400000,5214991.200000 8035164.900000,5216114.200000 8036398.200000,5220359.300000 8036801.500000,5221041.200000 8036801.700000,5221041.700000 8037429.300000,5222102.800000 8038298.800000,5223877.600000 8039044.800000,5225761.700000 8039511.000000,5226403.300000 8039511.000000,5226403.400000 8041643.600000,5229338.700000 8042295.200000,5230330.700000 8044545.800000,5234136.200000 8045977.900000,5235568.300000 8047261.900000,5237071.600000 8048452.800000,5238710.700000 8049063.400000,5239215.800000 8051860.500000,5241529.800000 8052738.400000,5242328.800000 8249634.800000,5439225.300000 8250388.800000,5440053.900000 8250800.000000,5440701.800000 8251377.700000,5441244.300000 8255765.100000,5445364.300000 8256049.300000,5445639.800000 8258023.000000,5447613.500000 8258342.700000,5447861.500000 8259244.700000,5448631.800000 8262467.900000,5451658.600000 8263162.500000,5452040.500000 8263162.800000,5452040.700000 8264243.400000,5452634.800000 8265895.300000,5453719.900000 8267495.900000,5454961.400000 8268222.800000,5455275.900000 8268223.200000,5455276.200000 8271553.700000,5456717.400000 8272618.700000,5457239.100000 8276494.000000,5459369.500000 8277261.500000,5459566.600000 8277261.600000,5459566.600000 8278456.200000,5459873.300000 8280326.700000,5460513.700000 8282185.500000,5461318.100000 8282967.800000,5461442.000000 8282968.800000,5461442.300000 8286552.400000,5462009.900000 8287714.400000,5462250.500000 8291228.900000,5463152.800000 8291997.000000,5463350.000000 8294022.400000,5463350.000000 8295993.400000,5463505.100000 8297994.300000,5463822.000000 8298783.500000,5463747.400000 8302396.100000,5463405.900000 8303581.900000,5463350.000000 8832699.600000,5463350.000000 8839511.700000,5465350.200000 8843020.900000,5468722.900000 8852302.300000,5481978.100000 8868021.900000,5497697.700000 8868472.700000,5498013.400000 8868473.000000,5498013.600000 8876049.500000,5503318.700000 8886232.300000,5510448.800000 8886730.500000,5510681.100000 8886731.000000,5510681.400000 8903225.800000,5518373.000000 8906380.400000,5519844.000000 8906911.200000,5519986.200000 8906911.400000,5519986.300000 8913494.900000,5521750.300000 8927853.700000,5525597.800000 8950000.000000,5527535.300000 8972146.300000,5525597.800000 8986505.100000,5521750.300000 8993088.600000,5519986.300000 8993088.800000,5519986.200000 8993619.600000,5519844.000000 9000702.700000,5516541.100000 9007721.900000,5515475.000000 9014203.100000,5518373.000000 9018088.800000,5524315.000000 9018145.100000,5531414.400000 9017116.600000,5533943.600000 9014908.100000,5538036.600000 8995365.500000,5574255.500000 8995002.700000,5574883.900000 8960658.400000,5630600.700000 8960260.000000,5631207.200000 8922765.600000,5684854.300000 8922333.000000,5685436.800000 8881812.400000,5736836.900000 8881347.000000,5737393.500000 8837933.900000,5786377.000000 8837438.900000,5786904.000000 8820163.300000,5804270.400000 8791279.200000,5833306.100000 8790752.900000,5833805.600000 8741997.700000,5877474.400000 8741444.200000,5877942.100000 8690256.800000,5918731.400000 8689676.500000,5919167.100000 8636226.300000,5956941.900000 8635622.000000,5957343.400000 8580085.900000,5991978.900000 8579459.400000,5992345.000000 8522021.600000,6023726.100000 8521375.100000,6024055.500000 8462226.400000,6052078.200000 8461561.900000,6052369.900000 8400897.600000,6076941.500000 8400217.500000,6077194.400000 8338239.600000,6098233.000000 8337548.700000,6098445.600000 8274459.600000,6115882.600000 8273757.200000,6116055.100000 8209770.400000,6129831.100000 8209057.100000,6129963.300000 8144383.700000,6140033.000000 8143665.500000,6140123.700000 8102989.700000,6144076.200000 8078521.900000,6146453.700000 8077798.000000,6146503.100000 8012396.400000,6149072.700000 8011670.800000,6149080.300000 7946230.200000,6147880.900000 7945505.400000,6147846.700000 7897713.000000,6144211.200000 7880243.100000,6142882.300000 7879522.800000,6142806.700000 7859548.600000,6140123.800000 7814652.200000,6134093.400000 7813936.100000,6133976.100000 7770235.900000,6125521.300000 7749675.900000,6121543.400000 7748969.300000,6121385.500000 7685529.800000,6105273.900000 7684835.500000,6105076.100000 7622428.700000,6085339.500000 7621743.900000,6085101.000000 7560578.300000,6061805.300000 7559907.900000,6061527.600000 7500185.600000,6034749.900000 7499532.300000,6034434.100000 7479552.600000,6024055.500000 7441448.500000,6004262.000000 7440816.500000,6003910.300000 7384566.100000,5970444.700000 7383953.500000,5970055.900000 7329725.000000,5933409.500000 7329135.700000,5932986.100000 7294020.300000,5906186.800000 7277105.000000,5893277.500000 7276541.500000,5892821.200000 7226882.700000,5850183.200000 7226346.000000,5849694.800000 7179225.400000,5804270.400000 7178717.700000,5803752.000000 7163144.500000,5786905.000000 7134288.100000,5755688.300000 7133811.900000,5755142.500000 7119206.800000,5737393.500000 7092223.200000,5704601.300000 7091779.300000,5704029.100000 7083343.800000,5692482.200000 7053169.600000,5651178.900000 7052758.600000,5650580.900000 7017255.000000,5595595.500000 7016879.100000,5594974.800000 6984599.300000,5538036.600000 6984261.000000,5537397.600000 6982260.800000,5533341.600000 6981041.900000,5526347.400000 6983797.900000,5519804.500000 6989653.800000,5515790.300000 6996750.300000,5515579.200000 6998886.100000,5516349.400000 7006380.400000,5519844.000000 7006911.200000,5519986.200000 7006911.400000,5519986.300000 7013494.900000,5521750.300000 7027853.700000,5525597.800000 7050000.000000,5527535.300000 7072146.300000,5525597.800000 7086505.100000,5521750.300000 7093088.600000,5519986.300000 7093088.800000,5519986.200000 7093619.600000,5519844.000000 7096774.200000,5518373.000000 7113269.000000,5510681.400000 7113269.500000,5510681.100000 7113767.700000,5510448.800000 7123950.500000,5503318.700000 7131527.000000,5498013.600000 7131527.300000,5498013.400000 7131978.100000,5497697.700000 7147697.700000,5481978.100000 7160448.800000,5463767.600000 7160681.100000,5463269.400000 7160681.400000,5463268.900000 7169611.700000,5444117.800000 7169611.800000,5444117.700000 7169844.000000,5443619.600000 7175597.800000,5422146.300000 7177535.300000,5400000.000000 7175597.800000,5377853.700000 7169844.000000,5356380.400000 7168781.500000,5354101.800000 7160681.400000,5336731.100000 7160681.100000,5336730.600000 7160448.800000,5336232.400000 7160133.100000,5335781.500000 7148013.600000,5318473.000000 7148013.400000,5318472.700000 7147697.700000,5318021.900000 7131978.100000,5302302.300000 7131527.300000,5301986.600000 7131527.000000,5301986.400000 7118722.900000,5293020.900000 7114290.100000,5287475.200000 7113350.000000,5282699.600000 7113350.000000,5158898.400000 7824200.100000,5158898.400000 7824219.500000,5159392.000000 7824443.000000,5162233.600000 7824673.000000,5163493.100000 7828910.700000,5178079.000000 7829535.200000,5179522.100000 7837191.100000,5192467.800000 7838155.100000,5193710.400000 7848789.600000,5204344.900000 7850032.200000,5205308.900000 7862977.900000,5212964.800000 7864421.000000,5213589.300000 7877860.500000,5217493.900000 7879270.600000,5217489.900000 7879600.000000,5216763.000000 7879600.000000,5216187.800000 7930400.000000,5216187.800000 7930797.300000,5217540.900000 7931587.100000,5217654.400000 7945579.000000,5213589.300000 7947022.100000,5212964.800000 7959967.800000,5205308.900000 7961210.400000,5204344.900000 7971844.900000,5193710.400000 7972808.900000,5192467.800000 7980464.800000,5179522.100000 7981089.300000,5178079.000000 7985326.900000,5163493.500000 7985557.000000,5162233.300000 7985780.700000,5159391.600000 7985800.000000,5158898.600000 7985800.000000,5120961.500000 7985352.500000,5119437.600000 7985213.500000,5119317.100000 7984445.200000,5119150.000000 7932211.500000,5119150.000000 7930687.600000,5119597.500000 7930567.100000,5119736.500000 7930400.000000,5120504.800000 7930400.000000,5216187.800000 7879600.000000,5216187.800000 7879600.000000,5120961.500000 7879152.500000,5119437.600000 7879013.500000,5119317.100000 7878245.200000,5119150.000000 7826011.600000,5119150.000000 7824487.700000,5119597.500000 7824367.200000,5119736.500000 7824200.100000,5120504.800000 7824200.100000,5158898.400000 7113350.000000,5158898.400000 7113350.000000,5066538.500000 7824200.000000,5066538.500000 7824647.500000,5068062.400000 7824786.500000,5068182.900000 7825554.800000,5068350.000000 7877788.500000,5068350.000000 7879312.400000,5067902.500000 7879432.900000,5067763.500000 7879600.000000,5066995.200000 7879600.000000,4971312.200000 7879202.700000,4969959.100000 7878412.900000,4969845.600000 7864421.000000,4973910.700000 7862977.900000,4974535.200000 7850032.200000,4982191.100000 7848789.600000,4983155.100000 7838155.100000,4993789.600000 7837191.100000,4995032.200000 7829535.200000,5007977.900000 7828910.700000,5009421.000000 7824673.100000,5024006.500000 7824443.000000,5025266.700000 7824219.300000,5028108.400000 7824200.000000,5028601.400000 7824200.000000,5066538.500000 7113350.000000,5066538.500000 7113350.000000,4717300.400000 7115350.200000,4710488.300000 7118722.900000,4706979.100000 7131527.000000,4698013.600000 7131527.300000,4698013.400000 7131978.100000,4697697.700000 7147697.700000,4681978.100000 7153547.500000,4673623.800000 7160133.100000,4664218.500000 7160133.200000,4664218.300000 7160448.800000,4663767.600000 7160681.100000,4663269.400000 7160681.400000,4663268.900000 7169611.700000,4644117.800000 7169611.800000,4644117.700000 7169844.000000,4643619.600000 7170977.700000,4639388.800000 7175455.400000,4622677.600000 7175597.800000,4622146.300000 7177535.300000,4600000.000000 7175597.800000,4577853.700000 7169844.000000,4556380.400000 7166348.400000,4548884.100000 7160681.400000,4536731.100000 7160681.100000,4536730.600000 7160448.800000,4536232.400000 7158217.700000,4533046.000000 7148013.600000,4518473.000000 7148013.400000,4518472.700000 7147697.700000,4518021.900000 7131978.100000,4502302.300000 7131527.300000,4501986.600000 7131527.000000,4501986.400000 7123950.500000,4496681.300000 7113767.700000,4489551.200000 7113269.500000,4489318.900000 7113269.000000,4489318.600000 7094117.800000,4480388.300000 7094117.700000,4480388.200000 7093619.600000,4480156.000000 7093088.800000,4480013.800000 7093088.600000,4480013.700000 7086505.100000,4478249.700000 7072146.300000,4474402.200000 7050000.000000,4472464.700000 7027853.700000,4474402.200000 7013494.900000,4478249.700000 7006911.400000,4480013.700000 7006911.200000,4480013.800000 7006380.400000,4480156.000000 7005882.200000,4480388.300000 7005881.700000,4480388.500000 6999079.200000,4483560.600000 6992060.000000,4484626.800000 6985578.700000,4481728.800000 6981693.100000,4475786.900000 6981636.700000,4468687.500000 6982482.800000,4466509.300000 6987087.900000,4457292.900000 6987430.800000,4456653.400000 7020007.700000,4399886.100000 7020386.800000,4399267.400000 7056178.800000,4344467.100000 7056593.000000,4343871.300000 7095477.800000,4291225.400000 7095925.500000,4290654.400000 7137777.300000,4240333.200000 7138257.100000,4239788.900000 7182936.800000,4191959.500000 7183447.200000,4191443.700000 7230806.800000,4146264.900000 7231346.100000,4145779.400000 7281224.900000,4103404.200000 7281791.100000,4102950.500000 7334030.000000,4063514.100000 7334621.500000,4063093.800000 7389041.500000,4026731.500000 7389656.200000,4026345.900000 7446079.100000,3993176.600000 7446714.900000,3992827.000000 7504955.500000,3962959.600000 7505610.500000,3962647.200000 7565473.200000,3936182.200000 7566145.000000,3935908.100000 7582529.000000,3929766.000000 7627431.300000,3912933.100000 7628114.200000,3912699.200000 7671400.000000,3899258.600000 7690624.700000,3893289.200000 7691323.500000,3893094.100000 7700994.100000,3890691.900000 7754845.200000,3877315.300000 7755551.000000,3877161.400000 7819878.100000,3865064.700000 7820592.200000,3864951.600000 7864152.400000,3859332.800000 7885507.900000,3856578.200000 7886229.900000,3856506.200000 7951516.300000,3851883.700000 7952241.300000,3851853.300000 8017687.200000,3850996.600000 Z"/> 
</g>
</g>
</g> 
</g><g id="substrate-pads" style="fill:#b5ae30; stroke:#b5ae30;" mask="url(#pads-mask)"><g style="fill-opacity: 0.0;stroke-width: 0.000000;stroke-opacity: 1;stroke-linecap: round;stroke-linejoin: round">
<g style="fill-opacity: 1.0;stroke-width: 0.100000;stroke-opacity: 1;stroke-linecap: round;stroke-linejoin: round">
<circle cx="8950000.000000" cy="5400000.000000" r="76200.000000"/> 
</g>
<g style="fill-opacity: 1.0;stroke-width: 0.100000;stroke-opacity: 1;stroke-linecap: round;stroke-linejoin: round">
<circle cx="7050000.000000" cy="5400000.000000" r="76200.000000"/> 
</g>
<g style="fill-opacity: 1.0;stroke-width: 0.100000;stroke-opacity: 1;stroke-linecap: round;stroke-linejoin: round">
<circle cx="8950000.000000" cy="4600000.000000" r="76200.000000"/> 
</g>
<g style="fill-opacity: 1.0;stroke-width: 0.100000;stroke-opacity: 1;stroke-linecap: round;stroke-linejoin: round">
<circle cx="7050000.000000" cy="4600000.000000" r="76200.000000"/> 
</g>
<g style="fill-opacity: 1.0;stroke-width: 0.100000;stroke-opacity: 1;stroke-linecap: round;stroke-linejoin: round">
<path style="fill-opacity: 1.0;stroke-width: 0.100000;stroke-opacity: 1;stroke-linecap: round;stroke-linejoin: round;fill-rule: evenodd" d="M 8080000.000000,5167500.000000 8074259.700000,5166358.200000 8069393.400000,5163106.600000 8066141.800000,5158240.300000 8065000.000000,5152500.000000 8065000.000000,5035000.000000 8066141.800000,5029259.700000 8069393.400000,5024393.400000 8074259.700000,5021141.800000 8080000.000000,5020000.000000 8110000.000000,5020000.000000 8115740.300000,5021141.800000 8120606.600000,5024393.400000 8123858.200000,5029259.700000 8125000.000000,5035000.000000 8125000.000000,5152500.000000 8123858.200000,5158240.300000 8120606.600000,5163106.600000 8115740.300000,5166358.200000 8110000.000000,5167500.000000 Z"/> 
<path style="fill-opacity: 1.0;stroke-width: 0.100000;stroke-opacity: 1;stroke-linecap: round;stroke-linejoin: round;fill-rule: evenodd" d="M 7890000.000000,5167500.000000 7884259.700000,5166358.200000 7879393.400000,5163106.600000 7876141.800000,5158240.300000 7875000.000000,5152500.000000 7875000.000000,5035000.000000 7876141.800000,5029259.700000 7879393.400000,5024393.400000 7884259.700000,5021141.800000 7890000.000000,5020000.000000 7920000.000000,5020000.000000 7925740.300000,5021141.800000 7930606.600000,5024393.400000 7933858.200000,5029259.700000 7935000.000000,5035000.000000 7935000.000000,5152500.000000 7933858.200000,5158240.300000 7930606.600000,5163106.600000 7925740.300000,5166358.200000 7920000.000000,5167500.000000 Z"/> 
<path style="fill-opacity: 1.0;stroke-width: 0.100000;stroke-opacity: 1;stroke-linecap: round;stroke-linejoin: round;fill-rule: evenodd" d="M 7985000.000000,4980000.000000 7979259.700000,4978858.200000 7974393.400000,4975606.600000 7971141.800000,4970740.300000 7970000.000000,4965000.000000 7970000.000000,4847500.000000 7971141.800000,4841759.700000 7974393.400000,4836893.400000 7979259.700000,4833641.800000 7985000.000000,4832500.000000 8015000.000000,4832500.000000 8020740.300000,4833641.800000 8025606.600000,4836893.400000 8028858.200000,4841759.700000 8030000.000000,4847500.000000 8030000.000000,4965000.000000 8028858.200000,4970740.300000 8025606.600000,4975606.600000 8020740.300000,4978858.200000 8015000.000000,4980000.000000 Z"/> 
</g>
<g style="fill-opacity: 1.0;stroke-width: 0.100000;stroke-opacity: 1;stroke-linecap: round;stroke-linejoin: round">
<circle cx="8300000.000000" cy="4600000.000000" r="40000.000000"/> 
</g>
<g style="fill-opacity: 1.0;stroke-width: 0.100000;stroke-opacity: 1;stroke-linecap: round;stroke-linejoin: round">
<circle cx="7700000.000000" cy="4600000.000000" r="40000.000000"/> 
</g>
<g style="fill-opacity: 0.0;stroke-width: 25000.000000;stroke-opacity: 1;stroke-linecap: round;stroke-linejoin: round">
<path d="M7050000 4600000 L7050000 5400000 "/>
<path d="M8095000 5195000 L8300000 5400000 "/>
<path d="M8950000 4600000 L8950000 5400000 "/>
<path d="M8095000 5093750 L8095000 5195000 "/>
<path d="M8300000 5400000 L8950000 5400000 "/>
<path d="M8000000 4800000 L8000000 4906250 "/>
<path d="M7800000 4600000 L8000000 4800000 "/>
<path d="M7700000 4600000 L7800000 4600000 "/>
</g>
<g style="fill-opacity: 0.0;stroke-width: 25000.000000;stroke-opacity: 1;stroke-linecap: round;stroke-linejoin: round">
<g style="fill-opacity: 1.0;stroke-width: 0.100000;stroke-opacity: 1;stroke-linecap: round;stroke-linejoin: round">
<path style="fill-opacity: 1.0;stroke-width: 0.100000;stroke-opacity: 1;stroke-linecap: round;stroke-linejoin: round;fill-rule: evenodd" d="M 8018412.700000,3851008.000000 8062558.300000,3852974.000000 8083799.400000,3853920.000000 8084521.200000,3853972.900000 8109246.400000,3856506.200000 8149632.700000,3860644.100000 8150352.100000,3860738.800000 8214971.500000,3871147.000000 8215684.300000,3871283.000000 8243008.900000,3877315.700000 8279596.500000,3885393.500000 8280300.200000,3885570.300000 8343293.100000,3903336.100000 8343982.300000,3903552.000000 8405856.300000,3924917.300000 8406528.800000,3925171.500000 8451002.500000,3943456.800000 8467066.500000,3950061.500000 8467729.300000,3950356.700000 8526730.700000,3978688.800000 8527373.800000,3979020.700000 8584648.200000,4010703.100000 8585270.200000,4011071.000000 8640625.500000,4045997.500000 8641227.800000,4046402.200000 8694479.500000,4084456.400000 8695057.500000,4084895.100000 8746031.600000,4125952.700000 8746583.300000,4126424.000000 8795107.100000,4170345.600000 8795630.800000,4170847.800000 8815905.800000,4191443.700000 8841547.100000,4217491.000000 8842040.200000,4218021.600000 8885196.200000,4267231.700000 8885658.700000,4267790.700000 8925909.100000,4319401.600000 8926338.200000,4319985.700000 8943049.200000,4344164.500000 8963552.200000,4373829.900000 8963947.400000,4374438.500000 8997998.800000,4430333.300000 8998358.300000,4430963.500000 9012214.500000,4456968.300000 9017067.900000,4466077.100000 9018505.900000,4473029.600000 9015956.900000,4479655.900000 9010230.100000,4483852.200000 9003143.700000,4484286.200000 9000622.900000,4483421.700000 8994117.800000,4480388.300000 8994117.700000,4480388.200000 8993619.600000,4480156.000000 8993088.800000,4480013.800000 8993088.600000,4480013.700000 8986505.100000,4478249.700000 8972146.300000,4474402.200000 8950000.000000,4472464.700000 8927853.700000,4474402.200000 8913494.900000,4478249.700000 8906911.400000,4480013.700000 8906911.200000,4480013.800000 8906380.400000,4480156.000000 8905882.300000,4480388.200000 8905882.200000,4480388.300000 8886731.100000,4489318.600000 8886730.600000,4489318.900000 8886232.400000,4489551.200000 8885781.700000,4489866.800000 8885781.500000,4489866.900000 8868473.000000,4501986.400000 8868472.700000,4501986.600000 8868021.900000,4502302.300000 8852302.300000,4518021.900000 8851986.600000,4518472.700000 8851986.400000,4518473.000000 8841782.300000,4533046.000000 8839551.200000,4536232.400000 8839318.900000,4536730.600000 8839318.600000,4536731.100000 8833651.600000,4548884.100000 8830156.000000,4556380.400000 8824402.200000,4577853.700000 8822464.700000,4600000.000000 8824402.200000,4622146.300000 8824544.600000,4622677.600000 8829022.400000,4639388.800000 8830156.000000,4643619.600000 8830388.200000,4644117.700000 8830388.300000,4644117.800000 8839318.600000,4663268.900000 8839318.900000,4663269.400000 8839551.200000,4663767.600000 8839866.800000,4664218.300000 8839866.900000,4664218.500000 8846452.600000,4673623.800000 8852302.300000,4681978.100000 8868021.900000,4697697.700000 8868472.700000,4698013.400000 8868473.000000,4698013.600000 8881277.100000,4706979.100000 8885709.900000,4712524.800000 8886650.000000,4717300.400000 8886650.000000,5282699.600000 8884649.800000,5289511.700000 8881277.100000,5293020.900000 8868473.000000,5301986.400000 8868472.700000,5301986.600000 8868021.900000,5302302.300000 8852302.300000,5318021.900000 8851986.600000,5318472.700000 8851986.400000,5318473.000000 8843020.900000,5331277.100000 8837475.200000,5335709.900000 8832699.600000,5336650.000000 8331459.400000,5336650.000000 8324647.300000,5334649.800000 8322549.900000,5332959.500000 8175628.900000,5186038.400000 8172226.300000,5179807.200000 8172438.700000,5173613.600000 8175376.800000,5163500.800000 8175376.900000,5163500.300000 8175556.200000,5162883.100000 8175607.400000,5162233.600000 8175830.700000,5159395.800000 8175830.700000,5159395.000000 8175850.000000,5159150.200000 8175850.000000,5028349.800000 8175830.700000,5028104.200000 8175606.700000,5025257.900000 8175606.600000,5025257.400000 8175556.200000,5024616.900000 8172652.800000,5014623.100000 8171135.700000,5009401.200000 8171135.600000,5009401.000000 8170914.500000,5008639.900000 8165687.500000,4999801.500000 8162849.100000,4995002.000000 8162848.900000,4995001.700000 8162445.300000,4994319.300000 8150680.700000,4982554.700000 8149998.300000,4982151.100000 8149998.000000,4982150.900000 8137042.700000,4974489.200000 8137042.800000,4974489.200000 8136360.100000,4974085.500000 8135599.000000,4973864.400000 8135598.800000,4973864.300000 8128823.000000,4971895.800000 8120383.100000,4969443.800000 8119742.600000,4969393.400000 8119742.100000,4969393.300000 8116895.800000,4969169.300000 8116895.000000,4969169.300000 8116650.200000,4969150.000000 8093450.000000,4969150.000000 8086637.900000,4967149.800000 8081988.600000,4961784.200000 8080850.000000,4956550.000000 8080850.000000,4840849.800000 8080556.200000,4837116.900000 8075914.500000,4821139.900000 8069377.900000,4810087.100000 8067849.100000,4807502.000000 8067848.900000,4807501.700000 8067445.300000,4806819.300000 8066884.500000,4806258.500000 8066398.900000,4805632.500000 8066549.600000,4805515.600000 8063637.900000,4800183.300000 8063350.000000,4797505.000000 8063350.000000,4796014.400000 8063299.500000,4795614.400000 8063206.200000,4794430.100000 8063092.200000,4790802.900000 8063067.300000,4790011.000000 8062502.200000,4788065.800000 8062101.400000,4786130.600000 8061946.700000,4784906.300000 8061847.400000,4784120.300000 8061555.600000,4783383.200000 8060220.000000,4780009.700000 8059835.500000,4778887.000000 8059772.100000,4778668.700000 8058601.800000,4774640.700000 8057570.700000,4772897.200000 8056701.200000,4771122.400000 8055955.200000,4769238.300000 8053356.400000,4765661.300000 8052704.800000,4764669.300000 8050858.000000,4761546.500000 8050857.800000,4761546.200000 8050454.200000,4760863.800000 8049022.100000,4759431.700000 8047738.000000,4757928.300000 8047013.100000,4756930.600000 8046547.200000,4756289.300000 8043139.500000,4753470.200000 8042261.600000,4752671.200000 7850365.200000,4560774.700000 7849611.200000,4559946.100000 7849200.000000,4559298.200000 7844234.800000,4554635.600000 7843950.700000,4554360.200000 7841977.000000,4552386.500000 7841657.300000,4552138.500000 7840755.100000,4551368.000000 7838110.000000,4548884.100000 7837532.100000,4548341.400000 7836837.500000,4547959.500000 7836837.200000,4547959.300000 7835756.600000,4547365.200000 7834104.700000,4546280.100000 7833504.800000,4545814.800000 7832504.100000,4545038.600000 7831777.200000,4544724.100000 7831776.800000,4544723.800000 7828446.300000,4543282.600000 7827381.300000,4542760.900000 7823506.000000,4540630.500000 7821543.700000,4540126.700000 7819673.400000,4539486.300000 7818542.000000,4538996.700000 7818541.900000,4538996.700000 7817814.500000,4538681.900000 7817032.200000,4538558.000000 7817031.200000,4538557.700000 7813447.600000,4537990.100000 7812285.600000,4537749.500000 7808771.100000,4536847.200000 7808771.000000,4536847.200000 7808003.000000,4536650.000000 7805977.600000,4536650.000000 7804006.500000,4536494.900000 7802788.600000,4536302.000000 7802005.700000,4536178.000000 7801216.500000,4536252.600000 7797603.900000,4536594.100000 7796418.100000,4536650.000000 7770820.000000,4536650.000000 7764007.900000,4534649.800000 7762085.300000,4533015.700000 7762058.000000,4533046.000000 7761566.800000,4532603.700000 7761125.300000,4532113.400000 7745675.200000,4520888.200000 7745072.400000,4520619.800000 7745072.200000,4520619.700000 7728831.900000,4513389.100000 7728831.800000,4513389.100000 7728228.800000,4513120.600000 7718888.700000,4511135.300000 7710194.400000,4509287.200000 7710193.900000,4509287.200000 7709548.700000,4509150.000000 7690451.300000,4509150.000000 7689806.100000,4509287.200000 7689805.600000,4509287.200000 7681111.300000,4511135.300000 7671771.200000,4513120.600000 7671168.200000,4513389.100000 7671168.100000,4513389.100000 7654927.800000,4520619.700000 7654927.600000,4520619.800000 7654324.800000,4520888.200000 7638874.700000,4532113.400000 7638432.600000,4532604.400000 7638432.500000,4532604.500000 7627520.300000,4544723.800000 7626096.000000,4546305.600000 7616547.300000,4562844.400000 7610645.800000,4581007.200000 7608649.600000,4600000.000000 7610645.800000,4618992.800000 7616547.300000,4637155.600000 7626096.000000,4653694.400000 7638874.700000,4667886.600000 7654324.800000,4679111.800000 7654927.600000,4679380.200000 7654927.800000,4679380.300000 7660762.600000,4681978.100000 7671771.200000,4686879.400000 7681111.200000,4688864.700000 7689805.600000,4690712.800000 7689806.100000,4690712.800000 7690451.300000,4690850.000000 7709548.700000,4690850.000000 7710193.900000,4690712.800000 7710194.400000,4690712.800000 7718888.700000,4688864.700000 7728228.800000,4686879.400000 7739237.400000,4681978.100000 7745072.200000,4679380.300000 7745072.400000,4679380.200000 7745675.200000,4679111.800000 7752745.700000,4673974.800000 7758967.100000,4669454.600000 7761125.300000,4667886.600000 7761339.900000,4667648.300000 7767627.400000,4664631.200000 7774672.700000,4665507.800000 7778566.700000,4668157.100000 7920496.700000,4810087.100000 7923899.300000,4816318.300000 7923686.900000,4822511.900000 7919443.800000,4837116.900000 7919150.000000,4840849.800000 7919150.000000,4971650.200000 7919169.300000,4971895.000000 7919169.300000,4971895.800000 7919377.100000,4974535.200000 7919443.800000,4975383.100000 7924085.500000,4991360.100000 7924489.200000,4992042.700000 7928645.300000,4999070.300000 7930400.000000,5005484.200000 7930400.000000,5066538.500000 7930847.500000,5068062.400000 7930986.500000,5068182.900000 7931754.800000,5068350.000000 7983988.400000,5068350.000000 7985512.300000,5067902.500000 7985632.800000,5067763.500000 7985799.900000,5066995.200000 7985799.900000,5043450.000000 7987800.100000,5036637.900000 7993165.700000,5031988.600000 7998399.900000,5030850.000000 8001550.000000,5030850.000000 8008362.100000,5032850.200000 8013011.400000,5038215.800000 8014150.000000,5043450.000000 8014150.000000,5159150.200000 8014169.300000,5159395.000000 8014169.300000,5159395.800000 8014392.700000,5162233.600000 8014443.800000,5162883.100000 8014623.300000,5163500.800000 8018858.600000,5178079.000000 8019085.500000,5178860.100000 8019489.200000,5179542.700000 8027150.900000,5192498.000000 8027151.100000,5192498.300000 8027554.700000,5193180.700000 8028164.000000,5193790.000000 8028189.800000,5193837.300000 8028601.100000,5194367.500000 8028515.600000,5194433.800000 8031566.600000,5200021.200000 8031848.300000,5202303.500000 8031932.700000,5204988.900000 8032497.800000,5206933.900000 8032898.700000,5208870.000000 8033152.600000,5210879.700000 8033444.500000,5211616.800000 8033444.500000,5211617.000000 8034780.400000,5214991.200000 8035164.900000,5216114.200000 8036398.200000,5220359.300000 8036801.500000,5221041.200000 8036801.700000,5221041.700000 8037429.300000,5222102.800000 8038298.800000,5223877.600000 8039044.800000,5225761.700000 8039511.000000,5226403.300000 8039511.000000,5226403.400000 8041643.600000,5229338.700000 8042295.200000,5230330.700000 8044545.800000,5234136.200000 8045977.900000,5235568.300000 8047261.900000,5237071.600000 8048452.800000,5238710.700000 8049063.400000,5239215.800000 8051860.500000,5241529.800000 8052738.400000,5242328.800000 8249634.800000,5439225.300000 8250388.800000,5440053.900000 8250800.000000,5440701.800000 8251377.700000,5441244.300000 8255765.100000,5445364.300000 8256049.300000,5445639.800000 8258023.000000,5447613.500000 8258342.700000,5447861.500000 8259244.700000,5448631.800000 8262467.900000,5451658.600000 8263162.500000,5452040.500000 8263162.800000,5452040.700000 8264243.400000,5452634.800000 8265895.300000,5453719.900000 8267495.900000,5454961.400000 8268222.800000,5455275.900000 8268223.200000,5455276.200000 8271553.700000,5456717.400000 8272618.700000,5457239.100000 8276494.000000,5459369.500000 8277261.500000,5459566.600000 8277261.600000,5459566.600000 8278456.200000,5459873.300000 8280326.700000,5460513.700000 8282185.500000,5461318.100000 8282967.800000,5461442.000000 8282968.800000,5461442.300000 8286552.400000,5462009.900000 8287714.400000,5462250.500000 8291228.900000,5463152.800000 8291997.000000,5463350.000000 8294022.400000,5463350.000000 8295993.400000,5463505.100000 8297994.300000,5463822.000000 8298783.500000,5463747.400000 8302396.100000,5463405.900000 8303581.900000,5463350.000000 8832699.600000,5463350.000000 8839511.700000,5465350.200000 8843020.900000,5468722.900000 8852302.300000,5481978.100000 8868021.900000,5497697.700000 8868472.700000,5498013.400000 8868473.000000,5498013.600000 8876049.500000,5503318.700000 8886232.300000,5510448.800000 8886730.500000,5510681.100000 8886731.000000,5510681.400000 8903225.800000,5518373.000000 8906380.400000,5519844.000000 8906911.200000,5519986.200000 8906911.400000,5519986.300000 8913494.900000,5521750.300000 8927853.700000,5525597.800000 8950000.000000,5527535.300000 8972146.300000,5525597.800000 8986505.100000,5521750.300000 8993088.600000,5519986.300000 8993088.800000,5519986.200000 8993619.600000,5519844.000000 9000702.700000,5516541.100000 9007721.900000,5515475.000000 9014203.100000,5518373.000000 9018088.800000,5524315.000000 9018145.100000,5531414.400000 9017116.600000,5533943.600000 9014908.100000,5538036.600000 8995365.500000,5574255.500000 8995002.700000,5574883.900000 8960658.400000,5630600.700000 8960260.000000,5631207.200000 8922765.600000,5684854.300000 8922333.000000,5685436.800000 8881812.400000,5736836.900000 8881347.000000,5737393.500000 8837933.900000,5786377.000000 8837438.900000,5786904.000000 8820163.300000,5804270.400000 8791279.200000,5833306.100000 8790752.900000,5833805.600000 8741997.700000,5877474.400000 8741444.200000,5877942.100000 8690256.800000,5918731.400000 8689676.500000,5919167.100000 8636226.300000,5956941.900000 8635622.000000,5957343.400000 8580085.900000,5991978.900000 8579459.400000,5992345.000000 8522021.600000,6023726.100000 8521375.100000,6024055.500000 8462226.400000,6052078.200000 8461561.900000,6052369.900000 8400897.600000,6076941.500000 8400217.500000,6077194.400000 8338239.600000,6098233.000000 8337548.700000,6098445.600000 8274459.600000,6115882.600000 8273757.200000,6116055.100000 8209770.400000,6129831.100000 8209057.100000,6129963.300000 8144383.700000,6140033.000000 8143665.500000,6140123.700000 8102989.700000,6144076.200000 8078521.900000,6146453.700000 8077798.000000,6146503.100000 8012396.400000,6149072.700000 8011670.800000,6149080.300000 7946230.200000,6147880.900000 7945505.400000,6147846.700000 7897713.000000,6144211.200000 7880243.100000,6142882.300000 7879522.800000,6142806.700000 7859548.600000,6140123.800000 7814652.200000,6134093.400000 7813936.100000,6133976.100000 7770235.900000,6125521.300000 7749675.900000,6121543.400000 7748969.300000,6121385.500000 7685529.800000,6105273.900000 7684835.500000,6105076.100000 7622428.700000,6085339.500000 7621743.900000,6085101.000000 7560578.300000,6061805.300000 7559907.900000,6061527.600000 7500185.600000,6034749.900000 7499532.300000,6034434.100000 7479552.600000,6024055.500000 7441448.500000,6004262.000000 7440816.500000,6003910.300000 7384566.100000,5970444.700000 7383953.500000,5970055.900000 7329725.000000,5933409.500000 7329135.700000,5932986.100000 7294020.300000,5906186.800000 7277105.000000,5893277.500000 7276541.500000,5892821.200000 7226882.700000,5850183.200000 7226346.000000,5849694.800000 7179225.400000,5804270.400000 7178717.700000,5803752.000000 7163144.500000,5786905.000000 7134288.100000,5755688.300000 7133811.900000,5755142.500000 7119206.800000,5737393.500000 7092223.200000,5704601.300000 7091779.300000,5704029.100000 7083343.800000,5692482.200000 7053169.600000,5651178.900000 7052758.600000,5650580.900000 7017255.000000,5595595.500000 7016879.100000,5594974.800000 6984599.300000,5538036.600000 6984261.000000,5537397.600000 6982260.800000,5533341.600000 6981041.900000,5526347.400000 6983797.900000,5519804.500000 6989653.800000,5515790.300000 6996750.300000,5515579.200000 6998886.100000,5516349.400000 7006380.400000,5519844.000000 7006911.200000,5519986.200000 7006911.400000,5519986.300000 7013494.900000,5521750.300000 7027853.700000,5525597.800000 7050000.000000,5527535.300000 7072146.300000,5525597.800000 7086505.100000,5521750.300000 7093088.600000,5519986.300000 7093088.800000,5519986.200000 7093619.600000,5519844.000000 7096774.200000,5518373.000000 7113269.000000,5510681.400000 7113269.500000,5510681.100000 7113767.700000,5510448.800000 7123950.500000,5503318.700000 7131527.000000,5498013.600000 7131527.300000,5498013.400000 7131978.100000,5497697.700000 7147697.700000,5481978.100000 7160448.800000,5463767.600000 7160681.100000,5463269.400000 7160681.400000,5463268.900000 7169611.700000,5444117.800000 7169611.800000,5444117.700000 7169844.000000,5443619.600000 7175597.800000,5422146.300000 7177535.300000,5400000.000000 7175597.800000,5377853.700000 7169844.000000,5356380.400000 7168781.500000,5354101.800000 7160681.400000,5336731.100000 7160681.100000,5336730.600000 7160448.800000,5336232.400000 7160133.100000,5335781.500000 7148013.600000,5318473.000000 7148013.400000,5318472.700000 7147697.700000,5318021.900000 7131978.100000,5302302.300000 7131527.300000,5301986.600000 7131527.000000,5301986.400000 7118722.900000,5293020.900000 7114290.100000,5287475.200000 7113350.000000,5282699.600000 7113350.000000,5158898.400000 7824200.100000,5158898.400000 7824219.500000,5159392.000000 7824443.000000,5162233.600000 7824673.000000,5163493.100000 7828910.700000,5178079.000000 7829535.200000,5179522.100000 7837191.100000,5192467.800000 7838155.100000,5193710.400000 7848789.600000,5204344.900000 7850032.200000,5205308.900000 7862977.900000,5212964.800000 7864421.000000,5213589.300000 7877860.500000,5217493.900000 7879270.600000,5217489.900000 7879600.000000,5216763.000000 7879600.000000,5216187.800000 7930400.000000,5216187.800000 7930797.300000,5217540.900000 7931587.100000,5217654.400000 7945579.000000,5213589.300000 7947022.100000,5212964.800000 7959967.800000,5205308.900000 7961210.400000,5204344.900000 7971844.900000,5193710.400000 7972808.900000,5192467.800000 7980464.800000,5179522.100000 7981089.300000,5178079.000000 7985326.900000,5163493.500000 7985557.000000,5162233.300000 7985780.700000,5159391.600000 7985800.000000,5158898.600000 7985800.000000,5120961.500000 7985352.500000,5119437.600000 7985213.500000,5119317.100000 7984445.200000,5119150.000000 7932211.500000,5119150.000000 7930687.600000,5119597.500000 7930567.100000,5119736.500000 7930400.000000,5120504.800000 7930400.000000,5216187.800000 7879600.000000,5216187.800000 7879600.000000,5120961.500000 7879152.500000,5119437.600000 7879013.500000,5119317.100000 7878245.200000,5119150.000000 7826011.600000,5119150.000000 7824487.700000,5119597.500000 7824367.200000,5119736.500000 7824200.100000,5120504.800000 7824200.100000,5158898.400000 7113350.000000,5158898.400000 7113350.000000,5066538.500000 7824200.000000,5066538.500000 7824647.500000,5068062.400000 7824786.500000,5068182.900000 7825554.800000,5068350.000000 7877788.500000,5068350.000000 7879312.400000,5067902.500000 7879432.900000,5067763.500000 7879600.000000,5066995.200000 7879600.000000,4971312.200000 7879202.700000,4969959.100000 7878412.900000,4969845.600000 7864421.000000,4973910.700000 7862977.900000,4974535.200000 7850032.200000,4982191.100000 7848789.600000,4983155.100000 7838155.100000,4993789.600000 7837191.100000,4995032.200000 7829535.200000,5007977.900000 7828910.700000,5009421.000000 7824673.100000,5024006.500000 7824443.000000,5025266.700000 7824219.300000,5028108.400000 7824200.000000,5028601.400000 7824200.000000,5066538.500000 7113350.000000,5066538.500000 7113350.000000,4717300.400000 7115350.200000,4710488.300000 7118722.900000,4706979.100000 7131527.000000,4698013.600000 7131527.300000,4698013.400000 7131978.100000,4697697.700000 7147697.700000,4681978.100000 7153547.500000,4673623.800000 7160133.100000,4664218.500000 7160133.200000,4664218.300000 7160448.800000,4663767.600000 7160681.100000,4663269.400000 7160681.400000,4663268.900000 7169611.700000,4644117.800000 7169611.800000,4644117.700000 7169844.000000,4643619.600000 7170977.700000,4639388.800000 7175455.400000,4622677.600000 7175597.800000,4622146.300000 7177535.300000,4600000.000000 7175597.800000,4577853.700000 7169844.000000,4556380.400000 7166348.400000,4548884.100000 7160681.400000,4536731.100000 7160681.100000,4536730.600000 7160448.800000,4536232.400000 7158217.700000,4533046.000000 7148013.600000,4518473.000000 7148013.400000,4518472.700000 7147697.700000,4518021.900000 7131978.100000,4502302.300000 7131527.300000,4501986.600000 7131527.000000,4501986.400000 7123950.500000,4496681.300000 7113767.700000,4489551.200000 7113269.500000,4489318.900000 7113269.000000,4489318.600000 7094117.800000,4480388.300000 7094117.700000,4480388.200000 7093619.600000,4480156.000000 7093088.800000,4480013.800000 7093088.600000,4480013.700000 7086505.100000,4478249.700000 7072146.300000,4474402.200000 7050000.000000,4472464.700000 7027853.700000,4474402.200000 7013494.900000,4478249.700000 7006911.400000,4480013.700000 7006911.200000,4480013.800000 7006380.400000,4480156.000000 7005882.200000,4480388.300000 7005881.700000,4480388.500000 6999079.200000,4483560.600000 6992060.000000,4484626.800000 6985578.700000,4481728.800000 6981693.100000,4475786.900000 6981636.700000,4468687.500000 6982482.800000,4466509.300000 6987087.900000,4457292.900000 6987430.800000,4456653.400000 7020007.700000,4399886.100000 7020386.800000,4399267.400000 7056178.800000,4344467.100000 7056593.000000,4343871.300000 7095477.800000,4291225.400000 7095925.500000,4290654.400000 7137777.300000,4240333.200000 7138257.100000,4239788.900000 7182936.800000,4191959.500000 7183447.200000,4191443.700000 7230806.800000,4146264.900000 7231346.100000,4145779.400000 7281224.900000,4103404.200000 7281791.100000,4102950.500000 7334030.000000,4063514.100000 7334621.500000,4063093.800000 7389041.500000,4026731.500000 7389656.200000,4026345.900000 7446079.100000,3993176.600000 7446714.900000,3992827.000000 7504955.500000,3962959.600000 7505610.500000,3962647.200000 7565473.200000,3936182.200000 7566145.000000,3935908.100000 7582529.000000,3929766.000000 7627431.300000,3912933.100000 7628114.200000,3912699.200000 7671400.000000,3899258.600000 7690624.700000,3893289.200000 7691323.500000,3893094.100000 7700994.100000,3890691.900000 7754845.200000,3877315.300000 7755551.000000,3877161.400000 7819878.100000,3865064.700000 7820592.200000,3864951.600000 7864152.400000,3859332.800000 7885507.900000,3856578.200000 7886229.900000,3856506.200000 7951516.300000,3851883.700000 7952241.300000,3851853.300000 8017687.200000,3850996.600000 Z"/> 
</g>
</g>
</g> 
</g><g id="substrate-silk" style="fill:#f0f0f0; stroke:#f0f0f0;" mask="url(#pads-mask-silkscreen)"><g style="fill-opacity: 0.0;stroke-width: 15000.000000;stroke-opacity: 1;stroke-linecap: round;stroke-linejoin: round">
<text x="8000000.000000" y="5650000.000000" transform="scale(-1 1) translate(-16000000.000000 0)" textLength="304761.800000" font-size="133333.300000" lengthAdjust="spacingAndGlyphs" text-anchor="middle" opacity="0">SW2</text>
<g class="stroked-text"><desc>SW2</desc>
<path d="M8133333 5640476 L8119047 5645238 L8095238 5645238 L8085714 5640476 L8080952 5635714 L8076190 5626190 L8076190 5616666 L8080952 5607142 L8085714 5602380 L8095238 5597619 L8114285 5592857 L8123809 5588095 L8128571 5583333 L8133333 5573809 L8133333 5564285 L8128571 5554761 L8123809 5550000 L8114285 5545238 L8090476 5545238 L8076190 5550000 "/>
<path d="M8042857 5545238 L8019047 5645238 L8000000 5573809 L7980952 5645238 L7957142 5545238 "/>
<path d="M7923809 5554761 L7919047 5550000 L7909523 5545238 L7885714 5545238 L7876190 5550000 L7871428 5554761 L7866666 5564285 L7866666 5573809 L7871428 5588095 L7928571 5645238 L7866666 5645238 "/>
</g><text x="8000000.000000" y="4450000.000000" transform="scale(-1 1) translate(-16000000.000000 0)" textLength="285261.900000" font-size="133333.300000" lengthAdjust="spacingAndGlyphs" text-anchor="middle" opacity="0">SW1</text>
<g class="stroked-text"><desc>SW1</desc>
<path d="M8133333 4440476 L8119047 4445238 L8095238 4445238 L8085714 4440476 L8080952 4435714 L8076190 4426190 L8076190 4416666 L8080952 4407142 L8085714 4402380 L8095238 4397619 L8114285 4392857 L8123809 4388095 L8128571 4383333 L8133333 4373809 L8133333 4364285 L8128571 4354761 L8123809 4350000 L8114285 4345238 L8090476 4345238 L8076190 4350000 "/>
<path d="M8042857 4345238 L8019047 4445238 L8000000 4373809 L7980952 4445238 L7957142 4345238 "/>
<path d="M7866666 4445238 L7923809 4445238 "/>
<path d="M7895238 4445238 L7895238 4345238 L7904761 4359523 L7914285 4369047 L7923809 4373809 "/>
</g><text x="8300000.000000" y="5050000.000000" transform="scale(-1 1) translate(-16600000.000000 0)" textLength="180500.000000" font-size="133333.300000" lengthAdjust="spacingAndGlyphs" text-anchor="middle" opacity="0">U1</text>
<g class="stroked-text"><desc>U1</desc>
<path d="M8376190 4945238 L8376190 5026190 L8371428 5035714 L8366666 5040476 L8357142 5045238 L8338095 5045238 L8328571 5040476 L8323809 5035714 L8319047 5026190 L8319047 4945238 "/>
<path d="M8219047 5045238 L8276190 5045238 "/>
<path d="M8247619 5045238 L8247619 4945238 L8257142 4959523 L8266666 4969047 L8276190 4973809 "/>
</g></g>
<g style="fill-opacity: 0.0;stroke-width: 12000.000000;stroke-opacity: 1;stroke-linecap: round;stroke-linejoin: round">
<path d="M7200000 5450000 L7200000 5350000 "/>
<path d="M7200000 5400000 L7150000 5400000 "/>
<path d="M7250000 5300000 L8750000 5300000 "/>
<path d="M7250000 5450000 L7200000 5450000 "/>
<path d="M8750000 5350000 L8800000 5350000 "/>
<path d="M8800000 5350000 L8800000 5450000 "/>
<path d="M7250000 5500000 L7250000 5450000 "/>
<path d="M8750000 5450000 L8750000 5500000 "/>
<path d="M8800000 5450000 L8750000 5450000 "/>
<path d="M8800000 5400000 L8850000 5400000 "/>
<path d="M7200000 5350000 L7250000 5350000 "/>
<path d="M7950000 5450000 L8800000 5400000 "/>
<path d="M8750000 5300000 L8750000 5350000 "/>
<path d="M7200000 5400000 L8050000 5350000 "/>
<path d="M8750000 5500000 L7250000 5500000 "/>
<path d="M7250000 5350000 L7250000 5300000 "/>
<path d="M8750000 4700000 L7250000 4700000 "/>
<path d="M8800000 4650000 L8750000 4650000 "/>
<path d="M7200000 4550000 L7250000 4550000 "/>
<path d="M8800000 4550000 L8800000 4650000 "/>
<path d="M7200000 4600000 L7150000 4600000 "/>
<path d="M8800000 4600000 L8850000 4600000 "/>
<path d="M7250000 4500000 L8750000 4500000 "/>
<path d="M7950000 4650000 L8800000 4600000 "/>
<path d="M8750000 4500000 L8750000 4550000 "/>
<path d="M7250000 4700000 L7250000 4650000 "/>
<path d="M7200000 4600000 L8050000 4550000 "/>
<path d="M7200000 4650000 L7200000 4550000 "/>
<path d="M8750000 4550000 L8800000 4550000 "/>
<path d="M7250000 4550000 L7250000 4500000 "/>
<path d="M7250000 4650000 L7200000 4650000 "/>
<path d="M8750000 4650000 L8750000 4700000 "/>
<path d="M8156000 5000000 L8156000 4935000 "/>
<path d="M7844000 5000000 L7844000 5065000 "/>
<path d="M7844000 5000000 L7844000 4935000 "/>
<path d="M8156000 5000000 L8156000 5167500 "/>
</g> 
</g><g id="substrate-outline" style="fill:#000000; stroke:#000000; stroke-width: 15000.0"><g style="fill-opacity: 0.0;stroke-opacity: 1;stroke-linecap: round;stroke-linejoin: round">
<circle cx="8000000.000000" cy="5000000.000000" r="1200000.000000"/> 
</g> 
<path d="M -38100.0 0.0 A 38100.0 38100.0 0 1 1 38100.0 0.0 L 38100.0 -0.0 A 38100.0 38100.0 0 1 1 -38100.0 -0.0 Z" transform="translate(8950000.0 5400000.0) rotate(-0.0)"/><path d="M -38100.0 0.0 A 38100.0 38100.0 0 1 1 38100.0 0.0 L 38100.0 -0.0 A 38100.0 38100.0 0 1 1 -38100.0 -0.0 Z" transform="translate(7050000.0 5400000.0) rotate(-0.0)"/><path d="M -38100.0 0.0 A 38100.0 38100.0 0 1 1 38100.0 0.0 L 38100.0 -0.0 A 38100.0 38100.0 0 1 1 -38100.0 -0.0 Z" transform="translate(8950000.0 4600000.0) rotate(-0.0)"/><path d="M -38100.0 0.0 A 38100.0 38100.0 0 1 1 38100.0 0.0 L 38100.0 -0.0 A 38100.0 38100.0 0 1 1 -38100.0 -0.0 Z" transform="translate(7050000.0 4600000.0) rotate(-0.0)"/><path d="M -20000.0 0.0 A 20000.0 20000.0 0 1 1 20000.0 0.0 L 20000.0 -0.0 A 20000.0 20000.0 0 1 1 -20000.0 -0.0 Z" transform="translate(8300000.0 4600000.0) rotate(0.0)"/><path d="M -20000.0 0.0 A 20000.0 20000.0 0 1 1 20000.0 0.0 L 20000.0 -0.0 A 20000.0 20000.0 0 1 1 -20000.0 -0.0 Z" transform="translate(7700000.0 4600000.0) rotate(0.0)"/></g></g></g><g transform="scale(-1,1)" id="componentContainer"><!--Resistor_SMD:R_0805_2012Metric.back:R1--></g></svg>